#N canvas 0 23 1440 778 16;
#N canvas 0 23 537 576 piano 1;
#X floatatom 196 38 5 0 0 0 - - -;
#X obj 107 148 osc~;
#X obj 191 149 osc~;
#X obj 280 151 osc~;
#X obj 370 151 osc~;
#X obj 107 97 * 1;
#X obj 186 96 * 2;
#X obj 282 100 * 3;
#X obj 372 98 * 4;
#X obj 136 310 +~;
#X obj 320 307 +~;
#X obj 228 385 +~;
#X obj 202 0 inlet;
#X obj 220 455 outlet~;
#X obj 398 217 *~ 0.1;
#X obj 186 217 *~ 0.1;
#X obj 78 217 *~ 0.6;
#X obj 290 217 *~ 0.1;
#X connect 0 0 5 0;
#X connect 0 0 6 0;
#X connect 0 0 7 0;
#X connect 0 0 8 0;
#X connect 1 0 16 0;
#X connect 2 0 15 0;
#X connect 3 0 17 0;
#X connect 4 0 14 0;
#X connect 5 0 1 0;
#X connect 6 0 2 0;
#X connect 7 0 3 0;
#X connect 8 0 4 0;
#X connect 9 0 11 0;
#X connect 10 0 11 1;
#X connect 11 0 13 0;
#X connect 12 0 0 0;
#X connect 14 0 10 1;
#X connect 15 0 9 1;
#X connect 16 0 9 0;
#X connect 17 0 10 0;
#X restore 12 272 pd piano;
#X floatatom 12 239 5 0 0 0 - - -;
#X obj 29 517 dac~;
#X obj 34 480 *~;
#X obj 112 428 line~;
#X obj 113 460 expr~ $v1*$v1;
#X obj 15 203 t b a;
#X obj 15 170 mtof;
#X msg 5 65 72;
#X msg 50 64 74;
#X msg 95 64 76;
#X msg 141 65 77;
#X msg 189 65 79;
#X msg 238 65 81;
#X msg 288 64 83;
#X msg 338 63 84;
#X msg 104 307 0.6 10;
#X obj 106 268 t b b;
#X obj 90 237 bng 15 250 50 0 empty empty empty 17 7 0 10 -262144 -1
-1;
#X msg 194 342 0.5 100;
#X obj 280 340 delay 100;
#X msg 283 375 0.1 1000;
#X obj 384 373 delay 100;
#X msg 384 406 0 500;
#X obj 56 552 bng 15 250 50 0 empty empty empty 17 7 0 10 -262144 -1
-1;
#X obj 19 624 qlist;
#X obj 4 8 bng 15 250 50 0 empty do empty 17 7 0 10 -262144 -1 -1;
#X obj 28 7 bng 15 250 50 0 empty re empty 17 7 0 10 -262144 -1 -1
;
#X obj 52 7 bng 15 250 50 0 empty mi empty 17 7 0 10 -262144 -1 -1
;
#X obj 78 7 bng 15 250 50 0 empty fa empty 17 7 0 10 -262144 -1 -1
;
#X obj 102 7 bng 15 250 50 0 empty sol empty 17 7 0 10 -262144 -1 -1
;
#X obj 126 8 bng 15 250 50 0 empty la empty 17 7 0 10 -262144 -1 -1
;
#X obj 149 8 bng 15 250 50 0 empty si empty 17 7 0 10 -262144 -1 -1
;
#X obj 173 6 bng 15 250 50 0 empty do2 empty 17 7 0 10 -262144 -1 -1
;
#X obj 194 5 bng 15 250 50 0 empty re2 empty 17 7 0 10 -262144 -1 -1
;
#X obj 220 5 bng 15 250 50 0 empty mi2 empty 17 7 0 10 -262144 -1 -1
;
#X msg 384 60 86;
#X msg 434 58 88;
#X obj 730 119 bng 15 250 50 0 empty C empty 17 7 0 10 -262144 -1 -1
;
#X obj 856 120 bng 15 250 50 0 empty Dm empty 17 7 0 10 -262144 -1
-1;
#X obj 721 6 bng 15 250 50 0 empty do' empty 17 7 0 10 -262144 -1 -1
;
#X obj 973 119 bng 15 250 50 0 empty F empty 17 7 0 10 -262144 -1 -1
;
#X obj 196 626 qlist;
#X obj 190 306 delay 100;
#X msg 16 587 read melody.txt;
#X msg 189 586 read chord.txt;
#X obj 17 555 bng 15 250 50 0 empty empty empty 17 7 0 10 -262144 -1
-1;
#X obj 1091 119 bng 15 250 50 0 empty G empty 17 7 0 10 -262144 -1
-1;
#X msg 481 55 89;
#X msg 528 52 91;
#X msg 575 49 93;
#X obj 245 6 bng 15 250 50 0 empty fa2 empty 17 7 0 10 -262144 -1 -1
;
#X obj 269 4 bng 15 250 50 0 empty sol2 empty 17 7 0 10 -262144 -1
-1;
#X obj 290 3 bng 15 250 50 0 empty la2 empty 17 7 0 10 -262144 -1 -1
;
#X obj 316 3 bng 15 250 50 0 empty si2 empty 17 7 0 10 -262144 -1 -1
;
#X msg 625 48 95;
#X msg 670 47 96;
#X obj 341 2 bng 15 250 50 0 empty do3 empty 17 7 0 10 -262144 -1 -1
;
#X msg 729 139 pd \; do' bang \; mi' bang \; sol' bang \;;
#X msg 855 140 pd \; re' bang \; fa' bang \; la' bang \;;
#X msg 972 139 pd \; do' bang \; fa' bang \; la' bang \;;
#X msg 1090 139 pd \; re' bang \; sol' bang \; si' bang \;;
#X msg 721 28 60;
#X obj 770 6 bng 15 250 50 0 empty re' empty 17 7 0 10 -262144 -1 -1
;
#X obj 821 7 bng 15 250 50 0 empty mi' empty 17 7 0 10 -262144 -1 -1
;
#X obj 870 5 bng 15 250 50 0 empty fa' empty 17 7 0 10 -262144 -1 -1
;
#X obj 920 4 bng 15 250 50 0 empty sol' empty 17 7 0 10 -262144 -1
-1;
#X obj 970 6 bng 15 250 50 0 empty la' empty 17 7 0 10 -262144 -1 -1
;
#X obj 1021 0 bng 15 250 50 0 empty si' empty 17 7 0 10 -262144 -1
-1;
#X msg 770 28 62;
#X msg 821 29 64;
#X msg 870 27 65;
#X msg 920 26 67;
#X msg 970 28 69;
#X msg 1021 22 71;
#N canvas 89 75 1324 726 merge 1;
#N canvas 0 23 537 576 piano 0;
#X floatatom 196 38 5 0 0 0 - - -;
#X obj 107 148 osc~;
#X obj 191 149 osc~;
#X obj 280 151 osc~;
#X obj 370 151 osc~;
#X obj 107 97 * 1;
#X obj 186 96 * 2;
#X obj 282 100 * 3;
#X obj 372 98 * 4;
#X obj 136 310 +~;
#X obj 320 307 +~;
#X obj 228 385 +~;
#X obj 202 0 inlet;
#X obj 220 455 outlet~;
#X obj 398 217 *~ 0.1;
#X obj 186 217 *~ 0.1;
#X obj 78 217 *~ 0.6;
#X obj 290 217 *~ 0.1;
#X connect 0 0 5 0;
#X connect 0 0 6 0;
#X connect 0 0 7 0;
#X connect 0 0 8 0;
#X connect 1 0 16 0;
#X connect 2 0 15 0;
#X connect 3 0 17 0;
#X connect 4 0 14 0;
#X connect 5 0 1 0;
#X connect 6 0 2 0;
#X connect 7 0 3 0;
#X connect 8 0 4 0;
#X connect 9 0 11 0;
#X connect 10 0 11 1;
#X connect 11 0 13 0;
#X connect 12 0 0 0;
#X connect 14 0 10 1;
#X connect 15 0 9 1;
#X connect 16 0 9 0;
#X connect 17 0 10 0;
#X restore 18 164 pd piano;
#X floatatom 31 133 5 0 0 0 - - -;
#X obj 29 321 *~;
#X obj 103 264 line~;
#X obj 110 298 expr~ $v1*$v1;
#X obj 32 96 t b a;
#X msg 107 158 0.6 10;
#X obj 145 126 t b b;
#X obj 104 131 bng 15 250 50 0 empty empty empty 17 7 0 10 -262144
-1 -1;
#X msg 169 191 0.5 100;
#X msg 332 243 0 500;
#X obj 335 215 delay 100;
#X msg 249 223 0.1 500;
#X obj 265 186 delay 800;
#X obj 190 155 delay 1990;
#X obj 33 54 mtof;
#X obj 33 20 inlet;
#X obj 29 360 dac~;
#X connect 0 0 2 0;
#X connect 1 0 0 0;
#X connect 2 0 17 0;
#X connect 2 0 17 1;
#X connect 3 0 4 0;
#X connect 4 0 2 1;
#X connect 5 0 8 0;
#X connect 5 1 1 0;
#X connect 6 0 3 0;
#X connect 7 0 14 0;
#X connect 7 1 6 0;
#X connect 8 0 7 0;
#X connect 9 0 3 0;
#X connect 10 0 3 0;
#X connect 11 0 10 0;
#X connect 12 0 3 0;
#X connect 13 0 12 0;
#X connect 13 0 11 0;
#X connect 14 0 9 0;
#X connect 14 0 13 0;
#X connect 15 0 5 0;
#X connect 16 0 15 0;
#X restore 724 77 pd merge;
#N canvas 89 75 1324 726 merge 0;
#N canvas 0 23 537 576 piano 0;
#X floatatom 196 38 5 0 0 0 - - -;
#X obj 107 148 osc~;
#X obj 191 149 osc~;
#X obj 280 151 osc~;
#X obj 370 151 osc~;
#X obj 107 97 * 1;
#X obj 186 96 * 2;
#X obj 282 100 * 3;
#X obj 372 98 * 4;
#X obj 136 310 +~;
#X obj 320 307 +~;
#X obj 228 385 +~;
#X obj 202 0 inlet;
#X obj 220 455 outlet~;
#X obj 398 217 *~ 0.1;
#X obj 186 217 *~ 0.1;
#X obj 78 217 *~ 0.6;
#X obj 290 217 *~ 0.1;
#X connect 0 0 5 0;
#X connect 0 0 6 0;
#X connect 0 0 7 0;
#X connect 0 0 8 0;
#X connect 1 0 16 0;
#X connect 2 0 15 0;
#X connect 3 0 17 0;
#X connect 4 0 14 0;
#X connect 5 0 1 0;
#X connect 6 0 2 0;
#X connect 7 0 3 0;
#X connect 8 0 4 0;
#X connect 9 0 11 0;
#X connect 10 0 11 1;
#X connect 11 0 13 0;
#X connect 12 0 0 0;
#X connect 14 0 10 1;
#X connect 15 0 9 1;
#X connect 16 0 9 0;
#X connect 17 0 10 0;
#X restore 18 164 pd piano;
#X floatatom 31 133 5 0 0 0 - - -;
#X obj 29 321 *~;
#X obj 103 264 line~;
#X obj 110 298 expr~ $v1*$v1;
#X obj 32 96 t b a;
#X msg 107 158 0.6 10;
#X obj 145 126 t b b;
#X obj 104 131 bng 15 250 50 0 empty empty empty 17 7 0 10 -262144
-1 -1;
#X msg 169 191 0.5 100;
#X msg 332 243 0 500;
#X obj 335 215 delay 100;
#X msg 249 223 0.1 500;
#X obj 265 186 delay 800;
#X obj 190 155 delay 1990;
#X obj 33 54 mtof;
#X obj 33 20 inlet;
#X obj 29 360 dac~;
#X connect 0 0 2 0;
#X connect 1 0 0 0;
#X connect 2 0 17 0;
#X connect 2 0 17 1;
#X connect 3 0 4 0;
#X connect 4 0 2 1;
#X connect 5 0 8 0;
#X connect 5 1 1 0;
#X connect 6 0 3 0;
#X connect 7 0 14 0;
#X connect 7 1 6 0;
#X connect 8 0 7 0;
#X connect 9 0 3 0;
#X connect 10 0 3 0;
#X connect 11 0 10 0;
#X connect 12 0 3 0;
#X connect 13 0 12 0;
#X connect 13 0 11 0;
#X connect 14 0 9 0;
#X connect 14 0 13 0;
#X connect 15 0 5 0;
#X connect 16 0 15 0;
#X restore 818 75 pd merge;
#N canvas 89 75 1324 726 merge 0;
#N canvas 0 23 537 576 piano 0;
#X floatatom 196 38 5 0 0 0 - - -;
#X obj 107 148 osc~;
#X obj 191 149 osc~;
#X obj 280 151 osc~;
#X obj 370 151 osc~;
#X obj 107 97 * 1;
#X obj 186 96 * 2;
#X obj 282 100 * 3;
#X obj 372 98 * 4;
#X obj 136 310 +~;
#X obj 320 307 +~;
#X obj 228 385 +~;
#X obj 202 0 inlet;
#X obj 220 455 outlet~;
#X obj 398 217 *~ 0.1;
#X obj 186 217 *~ 0.1;
#X obj 78 217 *~ 0.6;
#X obj 290 217 *~ 0.1;
#X connect 0 0 5 0;
#X connect 0 0 6 0;
#X connect 0 0 7 0;
#X connect 0 0 8 0;
#X connect 1 0 16 0;
#X connect 2 0 15 0;
#X connect 3 0 17 0;
#X connect 4 0 14 0;
#X connect 5 0 1 0;
#X connect 6 0 2 0;
#X connect 7 0 3 0;
#X connect 8 0 4 0;
#X connect 9 0 11 0;
#X connect 10 0 11 1;
#X connect 11 0 13 0;
#X connect 12 0 0 0;
#X connect 14 0 10 1;
#X connect 15 0 9 1;
#X connect 16 0 9 0;
#X connect 17 0 10 0;
#X restore 18 164 pd piano;
#X floatatom 31 133 5 0 0 0 - - -;
#X obj 29 321 *~;
#X obj 103 264 line~;
#X obj 110 298 expr~ $v1*$v1;
#X obj 32 96 t b a;
#X msg 107 158 0.6 10;
#X obj 145 126 t b b;
#X obj 104 131 bng 15 250 50 0 empty empty empty 17 7 0 10 -262144
-1 -1;
#X msg 169 191 0.5 100;
#X msg 332 243 0 500;
#X obj 335 215 delay 100;
#X msg 249 223 0.1 500;
#X obj 265 186 delay 800;
#X obj 190 155 delay 1990;
#X obj 33 54 mtof;
#X obj 33 20 inlet;
#X obj 29 360 dac~;
#X connect 0 0 2 0;
#X connect 1 0 0 0;
#X connect 2 0 17 0;
#X connect 2 0 17 1;
#X connect 3 0 4 0;
#X connect 4 0 2 1;
#X connect 5 0 8 0;
#X connect 5 1 1 0;
#X connect 6 0 3 0;
#X connect 7 0 14 0;
#X connect 7 1 6 0;
#X connect 8 0 7 0;
#X connect 9 0 3 0;
#X connect 10 0 3 0;
#X connect 11 0 10 0;
#X connect 12 0 3 0;
#X connect 13 0 12 0;
#X connect 13 0 11 0;
#X connect 14 0 9 0;
#X connect 14 0 13 0;
#X connect 15 0 5 0;
#X connect 16 0 15 0;
#X restore 910 74 pd merge;
#N canvas 89 75 1324 726 merge 0;
#N canvas 0 23 537 576 piano 0;
#X floatatom 196 38 5 0 0 0 - - -;
#X obj 107 148 osc~;
#X obj 191 149 osc~;
#X obj 280 151 osc~;
#X obj 370 151 osc~;
#X obj 107 97 * 1;
#X obj 186 96 * 2;
#X obj 282 100 * 3;
#X obj 372 98 * 4;
#X obj 136 310 +~;
#X obj 320 307 +~;
#X obj 228 385 +~;
#X obj 202 0 inlet;
#X obj 220 455 outlet~;
#X obj 398 217 *~ 0.1;
#X obj 186 217 *~ 0.1;
#X obj 78 217 *~ 0.6;
#X obj 290 217 *~ 0.1;
#X connect 0 0 5 0;
#X connect 0 0 6 0;
#X connect 0 0 7 0;
#X connect 0 0 8 0;
#X connect 1 0 16 0;
#X connect 2 0 15 0;
#X connect 3 0 17 0;
#X connect 4 0 14 0;
#X connect 5 0 1 0;
#X connect 6 0 2 0;
#X connect 7 0 3 0;
#X connect 8 0 4 0;
#X connect 9 0 11 0;
#X connect 10 0 11 1;
#X connect 11 0 13 0;
#X connect 12 0 0 0;
#X connect 14 0 10 1;
#X connect 15 0 9 1;
#X connect 16 0 9 0;
#X connect 17 0 10 0;
#X restore 18 164 pd piano;
#X floatatom 31 133 5 0 0 0 - - -;
#X obj 29 321 *~;
#X obj 103 264 line~;
#X obj 110 298 expr~ $v1*$v1;
#X obj 32 96 t b a;
#X msg 107 158 0.6 10;
#X obj 145 126 t b b;
#X obj 104 131 bng 15 250 50 0 empty empty empty 17 7 0 10 -262144
-1 -1;
#X msg 169 191 0.5 100;
#X msg 332 243 0 500;
#X obj 335 215 delay 100;
#X msg 249 223 0.1 500;
#X obj 265 186 delay 800;
#X obj 190 155 delay 1990;
#X obj 33 54 mtof;
#X obj 33 20 inlet;
#X obj 29 360 dac~;
#X connect 0 0 2 0;
#X connect 1 0 0 0;
#X connect 2 0 17 0;
#X connect 2 0 17 1;
#X connect 3 0 4 0;
#X connect 4 0 2 1;
#X connect 5 0 8 0;
#X connect 5 1 1 0;
#X connect 6 0 3 0;
#X connect 7 0 14 0;
#X connect 7 1 6 0;
#X connect 8 0 7 0;
#X connect 9 0 3 0;
#X connect 10 0 3 0;
#X connect 11 0 10 0;
#X connect 12 0 3 0;
#X connect 13 0 12 0;
#X connect 13 0 11 0;
#X connect 14 0 9 0;
#X connect 14 0 13 0;
#X connect 15 0 5 0;
#X connect 16 0 15 0;
#X restore 1001 75 pd merge;
#N canvas 89 75 1324 726 merge 0;
#N canvas 0 23 537 576 piano 0;
#X floatatom 196 38 5 0 0 0 - - -;
#X obj 107 148 osc~;
#X obj 191 149 osc~;
#X obj 280 151 osc~;
#X obj 370 151 osc~;
#X obj 107 97 * 1;
#X obj 186 96 * 2;
#X obj 282 100 * 3;
#X obj 372 98 * 4;
#X obj 136 310 +~;
#X obj 320 307 +~;
#X obj 228 385 +~;
#X obj 202 0 inlet;
#X obj 220 455 outlet~;
#X obj 398 217 *~ 0.1;
#X obj 186 217 *~ 0.1;
#X obj 78 217 *~ 0.6;
#X obj 290 217 *~ 0.1;
#X connect 0 0 5 0;
#X connect 0 0 6 0;
#X connect 0 0 7 0;
#X connect 0 0 8 0;
#X connect 1 0 16 0;
#X connect 2 0 15 0;
#X connect 3 0 17 0;
#X connect 4 0 14 0;
#X connect 5 0 1 0;
#X connect 6 0 2 0;
#X connect 7 0 3 0;
#X connect 8 0 4 0;
#X connect 9 0 11 0;
#X connect 10 0 11 1;
#X connect 11 0 13 0;
#X connect 12 0 0 0;
#X connect 14 0 10 1;
#X connect 15 0 9 1;
#X connect 16 0 9 0;
#X connect 17 0 10 0;
#X restore 18 164 pd piano;
#X floatatom 31 133 5 0 0 0 - - -;
#X obj 29 321 *~;
#X obj 103 264 line~;
#X obj 110 298 expr~ $v1*$v1;
#X obj 32 96 t b a;
#X msg 107 158 0.6 10;
#X obj 145 126 t b b;
#X obj 104 131 bng 15 250 50 0 empty empty empty 17 7 0 10 -262144
-1 -1;
#X msg 169 191 0.5 100;
#X msg 332 243 0 500;
#X obj 335 215 delay 100;
#X msg 249 223 0.1 500;
#X obj 265 186 delay 800;
#X obj 190 155 delay 1990;
#X obj 33 54 mtof;
#X obj 33 20 inlet;
#X obj 29 360 dac~;
#X connect 0 0 2 0;
#X connect 1 0 0 0;
#X connect 2 0 17 0;
#X connect 2 0 17 1;
#X connect 3 0 4 0;
#X connect 4 0 2 1;
#X connect 5 0 8 0;
#X connect 5 1 1 0;
#X connect 6 0 3 0;
#X connect 7 0 14 0;
#X connect 7 1 6 0;
#X connect 8 0 7 0;
#X connect 9 0 3 0;
#X connect 10 0 3 0;
#X connect 11 0 10 0;
#X connect 12 0 3 0;
#X connect 13 0 12 0;
#X connect 13 0 11 0;
#X connect 14 0 9 0;
#X connect 14 0 13 0;
#X connect 15 0 5 0;
#X connect 16 0 15 0;
#X restore 1092 75 pd merge;
#N canvas 89 75 1324 726 merge 0;
#N canvas 0 23 537 576 piano 0;
#X floatatom 196 38 5 0 0 0 - - -;
#X obj 107 148 osc~;
#X obj 191 149 osc~;
#X obj 280 151 osc~;
#X obj 370 151 osc~;
#X obj 107 97 * 1;
#X obj 186 96 * 2;
#X obj 282 100 * 3;
#X obj 372 98 * 4;
#X obj 136 310 +~;
#X obj 320 307 +~;
#X obj 228 385 +~;
#X obj 202 0 inlet;
#X obj 220 455 outlet~;
#X obj 398 217 *~ 0.1;
#X obj 186 217 *~ 0.1;
#X obj 78 217 *~ 0.6;
#X obj 290 217 *~ 0.1;
#X connect 0 0 5 0;
#X connect 0 0 6 0;
#X connect 0 0 7 0;
#X connect 0 0 8 0;
#X connect 1 0 16 0;
#X connect 2 0 15 0;
#X connect 3 0 17 0;
#X connect 4 0 14 0;
#X connect 5 0 1 0;
#X connect 6 0 2 0;
#X connect 7 0 3 0;
#X connect 8 0 4 0;
#X connect 9 0 11 0;
#X connect 10 0 11 1;
#X connect 11 0 13 0;
#X connect 12 0 0 0;
#X connect 14 0 10 1;
#X connect 15 0 9 1;
#X connect 16 0 9 0;
#X connect 17 0 10 0;
#X restore 18 164 pd piano;
#X floatatom 31 133 5 0 0 0 - - -;
#X obj 29 321 *~;
#X obj 103 264 line~;
#X obj 110 298 expr~ $v1*$v1;
#X obj 32 96 t b a;
#X msg 107 158 0.6 10;
#X obj 145 126 t b b;
#X obj 104 131 bng 15 250 50 0 empty empty empty 17 7 0 10 -262144
-1 -1;
#X msg 169 191 0.5 100;
#X msg 332 243 0 500;
#X obj 335 215 delay 100;
#X msg 249 223 0.1 500;
#X obj 265 186 delay 800;
#X obj 190 155 delay 1990;
#X obj 33 54 mtof;
#X obj 33 20 inlet;
#X obj 29 360 dac~;
#X connect 0 0 2 0;
#X connect 1 0 0 0;
#X connect 2 0 17 0;
#X connect 2 0 17 1;
#X connect 3 0 4 0;
#X connect 4 0 2 1;
#X connect 5 0 8 0;
#X connect 5 1 1 0;
#X connect 6 0 3 0;
#X connect 7 0 14 0;
#X connect 7 1 6 0;
#X connect 8 0 7 0;
#X connect 9 0 3 0;
#X connect 10 0 3 0;
#X connect 11 0 10 0;
#X connect 12 0 3 0;
#X connect 13 0 12 0;
#X connect 13 0 11 0;
#X connect 14 0 9 0;
#X connect 14 0 13 0;
#X connect 15 0 5 0;
#X connect 16 0 15 0;
#X restore 1184 74 pd merge;
#N canvas 89 75 1324 726 merge 0;
#N canvas 0 23 537 576 piano 0;
#X floatatom 196 38 5 0 0 0 - - -;
#X obj 107 148 osc~;
#X obj 191 149 osc~;
#X obj 280 151 osc~;
#X obj 370 151 osc~;
#X obj 107 97 * 1;
#X obj 186 96 * 2;
#X obj 282 100 * 3;
#X obj 372 98 * 4;
#X obj 136 310 +~;
#X obj 320 307 +~;
#X obj 228 385 +~;
#X obj 202 0 inlet;
#X obj 220 455 outlet~;
#X obj 398 217 *~ 0.1;
#X obj 186 217 *~ 0.1;
#X obj 78 217 *~ 0.6;
#X obj 290 217 *~ 0.1;
#X connect 0 0 5 0;
#X connect 0 0 6 0;
#X connect 0 0 7 0;
#X connect 0 0 8 0;
#X connect 1 0 16 0;
#X connect 2 0 15 0;
#X connect 3 0 17 0;
#X connect 4 0 14 0;
#X connect 5 0 1 0;
#X connect 6 0 2 0;
#X connect 7 0 3 0;
#X connect 8 0 4 0;
#X connect 9 0 11 0;
#X connect 10 0 11 1;
#X connect 11 0 13 0;
#X connect 12 0 0 0;
#X connect 14 0 10 1;
#X connect 15 0 9 1;
#X connect 16 0 9 0;
#X connect 17 0 10 0;
#X restore 18 164 pd piano;
#X floatatom 31 133 5 0 0 0 - - -;
#X obj 29 321 *~;
#X obj 103 264 line~;
#X obj 110 298 expr~ $v1*$v1;
#X obj 32 96 t b a;
#X msg 107 158 0.6 10;
#X obj 145 126 t b b;
#X obj 104 131 bng 15 250 50 0 empty empty empty 17 7 0 10 -262144
-1 -1;
#X msg 169 191 0.5 100;
#X msg 332 243 0 500;
#X obj 335 215 delay 100;
#X msg 249 223 0.1 500;
#X obj 265 186 delay 800;
#X obj 190 155 delay 1990;
#X obj 33 54 mtof;
#X obj 33 20 inlet;
#X obj 29 360 dac~;
#X connect 0 0 2 0;
#X connect 1 0 0 0;
#X connect 2 0 17 0;
#X connect 2 0 17 1;
#X connect 3 0 4 0;
#X connect 4 0 2 1;
#X connect 5 0 8 0;
#X connect 5 1 1 0;
#X connect 6 0 3 0;
#X connect 7 0 14 0;
#X connect 7 1 6 0;
#X connect 8 0 7 0;
#X connect 9 0 3 0;
#X connect 10 0 3 0;
#X connect 11 0 10 0;
#X connect 12 0 3 0;
#X connect 13 0 12 0;
#X connect 13 0 11 0;
#X connect 14 0 9 0;
#X connect 14 0 13 0;
#X connect 15 0 5 0;
#X connect 16 0 15 0;
#X restore 1275 75 pd merge;
#X connect 0 0 3 0;
#X connect 1 0 0 0;
#X connect 3 0 2 1;
#X connect 3 0 2 0;
#X connect 4 0 5 0;
#X connect 5 0 3 1;
#X connect 6 0 18 0;
#X connect 6 1 1 0;
#X connect 7 0 6 0;
#X connect 8 0 7 0;
#X connect 9 0 7 0;
#X connect 10 0 7 0;
#X connect 11 0 7 0;
#X connect 12 0 7 0;
#X connect 13 0 7 0;
#X connect 14 0 7 0;
#X connect 15 0 7 0;
#X connect 16 0 4 0;
#X connect 17 0 43 0;
#X connect 17 1 16 0;
#X connect 18 0 17 0;
#X connect 19 0 4 0;
#X connect 20 0 21 0;
#X connect 20 0 22 0;
#X connect 21 0 4 0;
#X connect 22 0 23 0;
#X connect 23 0 4 0;
#X connect 24 0 25 0;
#X connect 24 0 42 0;
#X connect 26 0 8 0;
#X connect 27 0 9 0;
#X connect 28 0 10 0;
#X connect 29 0 11 0;
#X connect 30 0 12 0;
#X connect 31 0 13 0;
#X connect 32 0 14 0;
#X connect 33 0 15 0;
#X connect 34 0 36 0;
#X connect 35 0 37 0;
#X connect 36 0 7 0;
#X connect 37 0 7 0;
#X connect 38 0 58 0;
#X connect 39 0 59 0;
#X connect 40 0 62 0;
#X connect 41 0 60 0;
#X connect 43 0 19 0;
#X connect 43 0 20 0;
#X connect 44 0 25 0;
#X connect 45 0 42 0;
#X connect 46 0 44 0;
#X connect 46 0 45 0;
#X connect 47 0 61 0;
#X connect 48 0 7 0;
#X connect 49 0 7 0;
#X connect 50 0 7 0;
#X connect 51 0 48 0;
#X connect 52 0 49 0;
#X connect 53 0 50 0;
#X connect 54 0 55 0;
#X connect 55 0 7 0;
#X connect 56 0 7 0;
#X connect 57 0 56 0;
#X connect 62 0 75 0;
#X connect 63 0 69 0;
#X connect 64 0 70 0;
#X connect 65 0 71 0;
#X connect 66 0 72 0;
#X connect 67 0 73 0;
#X connect 68 0 74 0;
#X connect 69 0 76 0;
#X connect 70 0 77 0;
#X connect 71 0 78 0;
#X connect 72 0 79 0;
#X connect 73 0 80 0;
#X connect 74 0 81 0;
