#N canvas 64 99 633 675 12;
#X obj 59 31 inlet;
#X obj 58 188 mtof;
#X obj 47 225 osc~ 880;
#X obj 72 155 i \$1;
#X obj 59 79 t b b;
#X obj 120 354 *~;
#X obj 126 121 bng 15 250 50 0 empty empty empty 17 7 0 10 -262144
-1 -1;
#X msg 127 154 0 \, 1 100;
#X obj 214 292 line~;
#X obj 220 137 delay 300;
#X obj 301 146 delay 300;
#X obj 429 170 delay 500;
#X msg 214 202 1 \, 0.5 300;
#X msg 329 225 0.5 0.3 500;
#X msg 455 236 0.3 \, 0 300;
#X obj 135 414 outlet~;
#X connect 0 0 4 0;
#X connect 1 0 2 0;
#X connect 2 0 5 0;
#X connect 3 0 1 0;
#X connect 4 0 6 0;
#X connect 4 1 3 0;
#X connect 5 0 15 0;
#X connect 6 0 7 0;
#X connect 6 0 9 0;
#X connect 7 0 8 0;
#X connect 8 0 5 1;
#X connect 9 0 12 0;
#X connect 9 0 10 0;
#X connect 10 0 13 0;
#X connect 10 0 11 0;
#X connect 11 0 14 0;
#X connect 12 0 8 0;
#X connect 13 0 8 0;
#X connect 14 0 8 0;
