#N canvas 0 23 1179 598 16;
#N canvas 174 242 450 300 beat1 0;
#X obj 23 38 inlet;
#X obj 44 158 spigot;
#X obj 40 227 outlet;
#X obj 89 31 r beat;
#X obj 70 75 sel 0;
#X obj 106 107 tgl 15 0 empty empty empty 17 7 0 10 -262144 -1 -1 1
1;
#X obj 135 221 s hit;
#X connect 0 0 1 0;
#X connect 1 0 2 0;
#X connect 1 0 6 0;
#X connect 3 0 4 0;
#X connect 4 0 1 0;
#X connect 5 0 1 1;
#X coords 0 -1 1 1 30 30 2 100 100;
#X restore 617 179 pd beat1;
#X obj 34 32 tgl 15 0 empty empty empty 17 7 0 10 -262144 -1 -1 1 1
;
#X obj 32 64 metro 200;
#X obj 35 97 i;
#X obj 84 97 + 1;
#X obj 123 103 % 8;
#X floatatom 39 151 5 0 0 0 - - -;
#X obj 314 35 r hit;
#X msg 329 85 1 \, 0 100;
#X obj 333 146 line~;
#X obj 251 151 noise~;
#X obj 310 205 *~;
#X obj 320 271 dac~;
#X obj 38 187 s beat;
#X connect 1 0 2 0;
#X connect 2 0 3 0;
#X connect 3 0 4 0;
#X connect 3 0 6 0;
#X connect 4 0 5 0;
#X connect 5 0 3 1;
#X connect 6 0 13 0;
#X connect 7 0 8 0;
#X connect 8 0 9 0;
#X connect 9 0 11 1;
#X connect 10 0 11 0;
#X connect 11 0 12 0;
