#N canvas 0 23 704 733 10;
#X obj 62 54 bng 15 250 50 0 empty do empty 17 7 0 10 -262144 -1 -1
;
#X obj 65 104 piano 72;
#X obj 122 49 bng 15 250 50 0 empty re empty 17 7 0 10 -262144 -1 -1
;
#X obj 125 99 piano 74;
#X obj 185 48 bng 15 250 50 0 empty mi empty 17 7 0 10 -262144 -1 -1
;
#X obj 245 43 bng 15 250 50 0 empty fa empty 17 7 0 10 -262144 -1 -1
;
#X obj 188 98 piano 76;
#X obj 248 93 piano 77;
#X obj 318 46 bng 15 250 50 0 empty sol empty 17 7 0 10 -262144 -1
-1;
#X obj 378 41 bng 15 250 50 0 empty la empty 17 7 0 10 -262144 -1 -1
;
#X obj 441 41 bng 15 250 50 0 empty si empty 17 7 0 10 -262144 -1 -1
;
#X obj 501 35 bng 15 250 50 0 empty do2 empty 17 7 0 10 -262144 -1
-1;
#X obj 321 96 piano 79;
#X obj 381 91 piano 81;
#X obj 444 90 piano 83;
#X obj 504 85 piano 84;
#X obj 57 256 bng 15 250 50 0 empty chord-1 empty 17 7 0 10 -262144
-1 -1;
#X msg 57 277 pd \; do bang \; mi bang \; sol bang \; do2 bang \;;
#X obj 136 252 bng 15 250 50 0 empty chord-2 empty 17 7 0 10 -262144
-1 -1;
#X obj 220 247 bng 15 250 50 0 empty chord-3 empty 17 7 0 10 -262144
-1 -1;
#X obj 301 246 bng 15 250 50 0 empty chord-4 empty 17 7 0 10 -262144
-1 -1;
#X obj 384 245 bng 15 250 50 0 empty chord-5 empty 17 7 0 10 -262144
-1 -1;
#X msg 137 273 pd \; re bang \; fa bang \; la bang \;;
#X msg 220 267 pd \; do bang \; fa bang \; la bang \; do2 bang \;;
#X msg 301 266 pd \; re bang \; fa bang \; sol bang \; si bang \;;
#X msg 384 265 pd \; do bang \; mi bang \; la bang \;;
#X obj 258 173 +~;
#X obj 95 580 dac~;
#X obj 258 194 delwrite~ aux 10000;
#X obj 548 123 bng 15 250 50 0 empty chord-5 empty 17 7 0 10 -262144
-1 -1;
#X obj 550 156 qlist;
#X msg 593 112 rewind;
#X obj 585 198 bng 15 250 50 0 empty chord-5 empty 17 7 0 10 -262144
-1 -1;
#X obj 31 192 +~;
#X obj 29 150 delread~ aux 0;
#X obj 76 202 *~ 0.5;
#X obj 55 225 delwrite~ bufferR 10000;
#X obj 149 403 +~;
#X obj 147 361 delread~ aux 0;
#X obj 194 413 *~ 0.5;
#X obj 173 436 delwrite~ bufferL 10000;
#X obj 74 179 delread~ bufferL 200;
#X obj 192 390 delread~ bufferR 200;
#X obj 37 427 /~ 1.5;
#X obj 129 483 /~ 1.5;
#X connect 0 0 1 0;
#X connect 1 0 26 0;
#X connect 2 0 3 0;
#X connect 3 0 26 0;
#X connect 4 0 6 0;
#X connect 5 0 7 0;
#X connect 6 0 26 0;
#X connect 7 0 26 0;
#X connect 8 0 12 0;
#X connect 9 0 13 0;
#X connect 10 0 14 0;
#X connect 11 0 15 0;
#X connect 12 0 26 0;
#X connect 13 0 26 0;
#X connect 14 0 26 0;
#X connect 15 0 26 0;
#X connect 16 0 17 0;
#X connect 18 0 22 0;
#X connect 19 0 23 0;
#X connect 20 0 24 0;
#X connect 21 0 25 0;
#X connect 26 0 28 0;
#X connect 29 0 30 0;
#X connect 30 1 32 0;
#X connect 31 0 30 0;
#X connect 33 0 36 0;
#X connect 33 0 43 0;
#X connect 34 0 33 0;
#X connect 35 0 33 1;
#X connect 37 0 40 0;
#X connect 37 0 44 0;
#X connect 38 0 37 0;
#X connect 39 0 37 1;
#X connect 41 0 35 0;
#X connect 42 0 39 0;
#X connect 43 0 27 0;
#X connect 44 0 27 1;
