#N canvas 414 135 888 621 10;
#X obj 50 135 *~;
#X obj 82 92 line~;
#X obj 51 172 dac~;
#X msg 94 55 5 \, 0 10;
#X obj 10 0 tgl 15 0 empty empty empty 17 7 0 10 -262144 -1 -1 0 1
;
#X obj 48 20 metro 50;
#X obj 13 92 noise~;
#X obj 346 370 bp~ 2000 4;
#X obj 259 37 vsl 15 128 0 1270 0 0 empty empty empty 0 -9 0 10 -262144
-1 -1 0 1;
#X obj 364 38 vsl 15 128 0 1270 0 0 empty empty empty 0 -9 0 10 -262144
-1 -1 0 1;
#X obj 488 39 vsl 15 128 0 1 0 0 empty empty empty 0 -9 0 10 -262144
-1 -1 0 1;
#X floatatom 239 335 5 0 0 0 - - -;
#X obj 121 206 noise~;
#X obj 128 286 env~;
#X floatatom 125 335 5 0 0 0 - - -;
#X obj 215 370 bp~ 2000 4;
#X floatatom 284 336 5 0 0 0 - - -;
#X obj 489 373 bp~ 2000 4, f 11;
#X obj 629 371 bp~ 2000 4;
#X floatatom 368 342 5 0 0 0 - - -;
#X floatatom 411 342 5 0 0 0 - - -;
#X obj 361 299 * 2;
#X obj 471 299 * 3;
#X floatatom 502 346 5 0 0 0 - - -;
#X floatatom 549 349 5 0 0 0 - - -;
#X floatatom 645 343 5 0 0 0 - - -;
#X floatatom 689 341 5 0 0 0 - - -;
#X obj 602 326 * 4;
#X obj 697 186 t b f;
#X obj 555 216 / 5;
#X obj 619 245 + 1;
#X obj 696 269 *;
#X floatatom 729 307 5 0 0 0 - - -;
#X obj 387 480 *~ 2;
#X obj 196 513 env~;
#X floatatom 195 550 5 0 0 0 - - -;
#X obj 387 567 dac~;
#X floatatom 301 137 5 0 0 0 - - -;
#X floatatom 410 145 5 0 0 0 - - -;
#X floatatom 537 133 5 0 0 0 - - -;
#X connect 0 0 2 0;
#X connect 1 0 0 1;
#X connect 3 0 1 0;
#X connect 4 0 5 0;
#X connect 5 0 3 0;
#X connect 6 0 0 0;
#X connect 7 0 33 0;
#X connect 8 0 11 0;
#X connect 8 0 21 0;
#X connect 8 0 22 0;
#X connect 8 0 27 0;
#X connect 8 0 37 0;
#X connect 9 0 16 0;
#X connect 9 0 20 0;
#X connect 9 0 24 0;
#X connect 9 0 26 0;
#X connect 9 0 29 0;
#X connect 9 0 38 0;
#X connect 10 0 28 0;
#X connect 10 0 39 0;
#X connect 11 0 15 1;
#X connect 12 0 13 0;
#X connect 12 0 15 0;
#X connect 12 0 7 0;
#X connect 12 0 17 0;
#X connect 12 0 18 0;
#X connect 13 0 14 0;
#X connect 15 0 33 0;
#X connect 16 0 15 2;
#X connect 17 0 33 0;
#X connect 18 0 33 0;
#X connect 19 0 7 1;
#X connect 20 0 7 2;
#X connect 21 0 19 0;
#X connect 22 0 23 0;
#X connect 23 0 17 1;
#X connect 24 0 17 2;
#X connect 25 0 18 1;
#X connect 26 0 18 2;
#X connect 27 0 25 0;
#X connect 28 0 31 0;
#X connect 28 1 31 1;
#X connect 29 0 30 0;
#X connect 30 0 31 0;
#X connect 31 0 32 0;
#X connect 31 0 33 1;
#X connect 33 0 34 0;
#X connect 33 0 36 0;
#X connect 33 0 36 1;
#X connect 34 0 35 0;
