#N canvas 137 40 1303 765 36;
#X obj 364 992 expr 1-$f1;
#X obj 296 1127 *~;
#X obj 651 915 *~;
#X obj 1404 970 delread4~ bufferleft;
#X obj 285 1195 delwrite~ bufferleft 1000;
#X obj 1593 1041 delread4~ bufferright;
#X obj 1536 1155 dac~;
#X obj 518 1090 delwrite~ bufferright 1000;
#X obj 805 367 tgl 50 0 empty empty empty 17 7 0 10 -204800 -1 -1 0
1;
#X floatatom 782 720 5 0 0 0 - - -;
#X obj 806 433 metro 400;
#X obj 232 26 bng 50 250 50 0 empty empty choose_a_file 55 35 0 16
-257985 -1 -1;
#X obj 240 103 openpanel;
#X msg 255 181 open \$1;
#X obj 258 262 readsf~;
#X msg 143 169 1;
#X obj 239 643 + 1;
#X obj 204 455 tgl 50 0 empty empty start_from_here 55 35 0 16 -258113
-1 -1 0 1;
#X obj 204 521 metro 400;
#X msg 48 564 0;
#X floatatom 155 779 5 0 0 0 - - -;
#X obj 156 716 / 100;
#X obj 30 924 *~;
#X obj 283 714 > 100;
#X obj 805 612 / 100;
#X obj 94 850 expr if($f1<=1 \, $f1 \, 1);
#X obj 152 645 i;
#X obj 810 779 expr if($f1<=1 \, $f1 \, 1);
#X obj 804 548 f;
#X obj 884 548 + 0.5;
#X obj 922 705 > 1;
#X obj 1613 407 tgl 50 0 empty empty empty 17 7 0 10 -204800 -1 -1
0 1;
#X obj 1614 464 metro 400;
#X floatatom 1461 692 5 0 0 0 - - -;
#X obj 1463 637 / 100;
#X obj 1460 556 i;
#X msg 1436 484 100;
#X obj 1434 751 expr if($f1>=0 \, $f1 \, 0);
#X obj 771 1015 *~;
#X msg 705 476 0.5;
#X obj 1542 555 - 0.333;
#X obj 445 191 loadbang;
#X text 16 381 左遠到左近;
#X text 848 303 左到右;
#X text 1536 293 右近到右遠;
#X connect 0 0 1 1;
#X connect 1 0 4 0;
#X connect 2 0 38 0;
#X connect 3 0 6 0;
#X connect 5 0 6 1;
#X connect 8 0 10 0;
#X connect 10 0 28 0;
#X connect 11 0 12 0;
#X connect 12 0 13 0;
#X connect 13 0 14 0;
#X connect 14 0 2 0;
#X connect 14 0 22 0;
#X connect 15 0 14 0;
#X connect 16 0 26 1;
#X connect 17 0 18 0;
#X connect 18 0 26 0;
#X connect 19 0 26 0;
#X connect 21 0 20 0;
#X connect 21 0 25 0;
#X connect 22 0 1 0;
#X connect 23 0 8 0;
#X connect 24 0 9 0;
#X connect 24 0 27 0;
#X connect 24 0 30 0;
#X connect 25 0 22 1;
#X connect 26 0 16 0;
#X connect 26 0 21 0;
#X connect 26 0 23 0;
#X connect 27 0 2 1;
#X connect 27 0 0 0;
#X connect 28 0 24 0;
#X connect 28 0 29 0;
#X connect 29 0 28 1;
#X connect 30 0 31 0;
#X connect 31 0 32 0;
#X connect 32 0 35 0;
#X connect 34 0 33 0;
#X connect 34 0 37 0;
#X connect 35 0 34 0;
#X connect 35 0 40 0;
#X connect 36 0 35 0;
#X connect 37 0 38 1;
#X connect 38 0 7 0;
#X connect 39 0 28 0;
#X connect 40 0 35 1;
#X connect 41 0 19 0;
#X connect 41 0 39 0;
#X connect 41 0 36 0;
#X coords 0 0 1 1 85 60 0;
