#N canvas 57 57 853 642 36;
#X obj 235 65 loadbang;
#X msg 235 121 0;
#X obj 235 177 tgl 50 0 empty empty empty 17 7 0 10 -260097 -1 -1 0
1;
#X obj 235 235 + 1;
#X obj 435 64 loadbang;
#X msg 435 120 0;
#X obj 435 176 tgl 50 0 empty empty empty 17 7 0 10 -4032 -1 -1 0 1
;
#X obj 435 234 s Play;
#X obj 235 324 s Record;
#X obj 24 409 adc~;
#X obj 24 491 s~ mic;
#X obj 24 73 loadbang;
#X msg 24 129 \; pd dsp 1;
#X obj 239 416 r~ dac;
#X obj 239 493 *~;
#X obj 239 570 dac~;
#X obj 376 481 hsl 250 50 0 127 0 0 empty empty empty -2 -8 0 10 -4160
-1 -1 0 1;
#X obj 373 560 / 127;
#X msg 701 421 open record.wav;
#X obj 696 607 writesf~ 2;
#X msg 747 489 start;
#X msg 895 544 stop;
#X connect 1 0 2 0;
#X connect 2 0 3 0;
#X connect 3 0 8 0;
#X connect 5 0 6 0;
#X connect 6 0 7 0;
#X connect 9 0 10 0;
#X connect 9 1 10 0;
#X connect 11 0 12 0;
#X connect 13 0 14 0;
#X connect 14 0 15 0;
#X connect 14 0 15 1;
#X connect 14 0 19 0;
#X connect 16 0 17 0;
#X connect 17 0 14 0;
#X connect 18 0 19 0;
#X connect 20 0 19 0;
#X connect 21 0 19 0;
