#N canvas 408 233 450 300 10;
#X obj 94 98 readsf~;
#X obj 156 186 writesf~;
#X msg 78 68 open sound.wav \, start;
#X msg 198 113 open record.wav \, start;
#X msg 268 54 stop;
#X obj 57 187 dac~;
#X obj 182 23 bng 15 250 50 0 empty empty empty 17 7 0 10 -262144 -1
-1;
#X connect 0 0 1 0;
#X connect 0 0 5 0;
#X connect 0 0 5 1;
#X connect 2 0 0 0;
#X connect 3 0 1 0;
#X connect 4 0 1 0;
#X connect 4 0 0 0;
#X connect 6 0 2 0;
#X connect 6 0 3 0;
