#N canvas -11 42 941 593 16;
#N canvas 0 250 450 300 beat1 0;
#X obj 54 172 spigot;
#X obj 108 107 tgl 15 0 empty empty empty 17 7 0 10 -262144 -1 -1 0
1;
#X obj 17 44 inlet;
#X obj 60 235 outlet;
#X obj 88 52 r beat;
#X obj 42 90 sel 0;
#X obj 142 227 s hit;
#X connect 0 0 3 0;
#X connect 0 0 6 0;
#X connect 1 0 0 1;
#X connect 2 0 0 0;
#X connect 4 0 5 0;
#X connect 5 0 0 0;
#X coords 0 -1 1 1 30 30 2 100 100;
#X restore 117 216 pd beat1;
#X obj 239 70 spigot;
#X obj 296 36 tgl 15 0 empty empty empty 17 7 0 10 -262144 -1 -1 0
1;
#X obj 240 24 bng 15 250 50 0 empty empty empty 17 7 0 10 -262144 -1
-1;
#X obj 240 122 bng 15 250 50 0 empty empty empty 17 7 0 10 -262144
-1 -1;
#X obj 47 44 metro 200;
#X obj 48 80 i;
#X obj 93 81 + 1;
#X obj 137 82 % 8;
#X obj 47 18 tgl 15 0 empty empty empty 17 7 0 10 -262144 -1 -1 1 1
;
#X floatatom 48 120 5 0 0 0 - - -;
#X obj 48 157 s beat;
#X obj 585 99 noise~;
#X obj 638 152 *~;
#X obj 668 110 line~;
#X obj 630 26 r hit;
#N canvas 0 250 450 300 beat1 0;
#X obj 54 172 spigot;
#X obj 108 107 tgl 15 0 empty empty empty 17 7 0 10 -262144 -1 -1 0
1;
#X obj 17 44 inlet;
#X obj 60 235 outlet;
#X obj 88 52 r beat;
#X obj 142 227 s hit;
#X obj 42 90 sel 1;
#X connect 0 0 3 0;
#X connect 0 0 5 0;
#X connect 1 0 0 1;
#X connect 2 0 0 0;
#X connect 4 0 6 0;
#X connect 6 0 0 0;
#X coords 0 -1 1 1 30 30 2 100 100;
#X restore 152 216 pd beat1;
#N canvas 0 250 450 300 beat1 0;
#X obj 54 172 spigot;
#X obj 108 107 tgl 15 0 empty empty empty 17 7 0 10 -262144 -1 -1 0
1;
#X obj 17 44 inlet;
#X obj 60 235 outlet;
#X obj 88 52 r beat;
#X obj 142 227 s hit;
#X obj 42 90 sel 2;
#X connect 0 0 3 0;
#X connect 0 0 5 0;
#X connect 1 0 0 1;
#X connect 2 0 0 0;
#X connect 4 0 6 0;
#X connect 6 0 0 0;
#X coords 0 -1 1 1 30 30 2 100 100;
#X restore 186 216 pd beat1;
#N canvas 0 250 450 300 beat1 0;
#X obj 54 172 spigot;
#X obj 108 107 tgl 15 0 empty empty empty 17 7 0 10 -262144 -1 -1 0
1;
#X obj 17 44 inlet;
#X obj 60 235 outlet;
#X obj 88 52 r beat;
#X obj 142 227 s hit;
#X obj 42 90 sel 3;
#X connect 0 0 3 0;
#X connect 0 0 5 0;
#X connect 1 0 0 1;
#X connect 2 0 0 0;
#X connect 4 0 6 0;
#X connect 6 0 0 0;
#X coords 0 -1 1 1 30 30 2 100 100;
#X restore 221 216 pd beat1;
#N canvas 0 250 450 300 beat1 0;
#X obj 54 172 spigot;
#X obj 108 107 tgl 15 0 empty empty empty 17 7 0 10 -262144 -1 -1 0
1;
#X obj 17 44 inlet;
#X obj 60 235 outlet;
#X obj 88 52 r beat;
#X obj 142 227 s hit;
#X obj 42 90 sel 4;
#X connect 0 0 3 0;
#X connect 0 0 5 0;
#X connect 1 0 0 1;
#X connect 2 0 0 0;
#X connect 4 0 6 0;
#X connect 6 0 0 0;
#X coords 0 -1 1 1 30 30 2 100 100;
#X restore 254 215 pd beat1;
#N canvas 0 250 450 300 beat1 0;
#X obj 54 172 spigot;
#X obj 108 107 tgl 15 0 empty empty empty 17 7 0 10 -262144 -1 -1 0
1;
#X obj 17 44 inlet;
#X obj 60 235 outlet;
#X obj 88 52 r beat;
#X obj 142 227 s hit;
#X obj 42 90 sel 5;
#X connect 0 0 3 0;
#X connect 0 0 5 0;
#X connect 1 0 0 1;
#X connect 2 0 0 0;
#X connect 4 0 6 0;
#X connect 6 0 0 0;
#X coords 0 -1 1 1 30 30 2 100 100;
#X restore 289 215 pd beat1;
#N canvas 0 250 450 300 beat1 0;
#X obj 54 172 spigot;
#X obj 108 107 tgl 15 0 empty empty empty 17 7 0 10 -262144 -1 -1 0
1;
#X obj 17 44 inlet;
#X obj 60 235 outlet;
#X obj 88 52 r beat;
#X obj 142 227 s hit;
#X obj 42 90 sel 6;
#X connect 0 0 3 0;
#X connect 0 0 5 0;
#X connect 1 0 0 1;
#X connect 2 0 0 0;
#X connect 4 0 6 0;
#X connect 6 0 0 0;
#X coords 0 -1 1 1 30 30 2 100 100;
#X restore 323 215 pd beat1;
#N canvas 0 250 450 300 beat1 0;
#X obj 54 172 spigot;
#X obj 108 107 tgl 15 0 empty empty empty 17 7 0 10 -262144 -1 -1 0
1;
#X obj 17 44 inlet;
#X obj 60 235 outlet;
#X obj 88 52 r beat;
#X obj 142 227 s hit;
#X obj 42 90 sel 7;
#X connect 0 0 3 0;
#X connect 0 0 5 0;
#X connect 1 0 0 1;
#X connect 2 0 0 0;
#X connect 4 0 6 0;
#X connect 6 0 0 0;
#X coords 0 -1 1 1 30 30 2 100 100;
#X restore 358 215 pd beat1;
#X msg 669 71 1 \, 0 100;
#X floatatom 131 9 5 0 0 0 - - -;
#X obj 644 338 *~;
#X obj 674 296 line~;
#X obj 560 522 dac~;
#X msg 675 257 1 \, 0 100;
#X obj 591 285 osc~;
#X obj 589 251 line~;
#X msg 485 220 880 \, 1600 100;
#N canvas 0 23 672 347 line 0;
#N canvas 0 250 450 300 beat1 0;
#X obj 54 172 spigot;
#X obj 108 107 tgl 15 0 empty empty empty 17 7 0 10 -262144 -1 -1 0
1;
#X obj 17 44 inlet;
#X obj 60 235 outlet;
#X obj 88 52 r beat;
#X obj 42 90 sel 0;
#X obj 142 227 s hit2;
#X connect 0 0 3 0;
#X connect 0 0 6 0;
#X connect 1 0 0 1;
#X connect 2 0 0 0;
#X connect 4 0 5 0;
#X connect 5 0 0 0;
#X coords 0 -1 1 1 30 30 2 100 100;
#X restore 162 115 pd beat1;
#N canvas 0 250 450 300 beat1 0;
#X obj 54 172 spigot;
#X obj 108 107 tgl 15 0 empty empty empty 17 7 0 10 -262144 -1 -1 0
1;
#X obj 17 44 inlet;
#X obj 60 235 outlet;
#X obj 88 52 r beat;
#X obj 42 90 sel 1;
#X obj 142 227 s hit2;
#X connect 0 0 3 0;
#X connect 0 0 6 0;
#X connect 1 0 0 1;
#X connect 2 0 0 0;
#X connect 4 0 5 0;
#X connect 5 0 0 0;
#X coords 0 -1 1 1 30 30 2 100 100;
#X restore 197 115 pd beat1;
#N canvas 0 250 450 300 beat1 0;
#X obj 54 172 spigot;
#X obj 108 107 tgl 15 0 empty empty empty 17 7 0 10 -262144 -1 -1 0
1;
#X obj 17 44 inlet;
#X obj 60 235 outlet;
#X obj 88 52 r beat;
#X obj 42 90 sel 2;
#X obj 142 227 s hit2;
#X connect 0 0 3 0;
#X connect 0 0 6 0;
#X connect 1 0 0 1;
#X connect 2 0 0 0;
#X connect 4 0 5 0;
#X connect 5 0 0 0;
#X coords 0 -1 1 1 30 30 2 100 100;
#X restore 231 115 pd beat1;
#N canvas 0 250 450 300 beat1 0;
#X obj 54 172 spigot;
#X obj 108 107 tgl 15 0 empty empty empty 17 7 0 10 -262144 -1 -1 0
1;
#X obj 17 44 inlet;
#X obj 60 235 outlet;
#X obj 88 52 r beat;
#X obj 42 90 sel 3;
#X obj 142 227 s hit2;
#X connect 0 0 3 0;
#X connect 0 0 6 0;
#X connect 1 0 0 1;
#X connect 2 0 0 0;
#X connect 4 0 5 0;
#X connect 5 0 0 0;
#X coords 0 -1 1 1 30 30 2 100 100;
#X restore 266 115 pd beat1;
#N canvas 0 250 450 300 beat1 0;
#X obj 54 172 spigot;
#X obj 108 107 tgl 15 0 empty empty empty 17 7 0 10 -262144 -1 -1 0
1;
#X obj 17 44 inlet;
#X obj 60 235 outlet;
#X obj 88 52 r beat;
#X obj 42 90 sel 4;
#X obj 142 227 s hit2;
#X connect 0 0 3 0;
#X connect 0 0 6 0;
#X connect 1 0 0 1;
#X connect 2 0 0 0;
#X connect 4 0 5 0;
#X connect 5 0 0 0;
#X coords 0 -1 1 1 30 30 2 100 100;
#X restore 299 114 pd beat1;
#N canvas 0 250 450 300 beat1 0;
#X obj 54 172 spigot;
#X obj 108 107 tgl 15 0 empty empty empty 17 7 0 10 -262144 -1 -1 0
1;
#X obj 17 44 inlet;
#X obj 60 235 outlet;
#X obj 88 52 r beat;
#X obj 42 90 sel 5;
#X obj 142 227 s hit2;
#X connect 0 0 3 0;
#X connect 0 0 6 0;
#X connect 1 0 0 1;
#X connect 2 0 0 0;
#X connect 4 0 5 0;
#X connect 5 0 0 0;
#X coords 0 -1 1 1 30 30 2 100 100;
#X restore 334 114 pd beat1;
#N canvas 0 250 450 300 beat1 0;
#X obj 54 172 spigot;
#X obj 108 107 tgl 15 0 empty empty empty 17 7 0 10 -262144 -1 -1 0
1;
#X obj 17 44 inlet;
#X obj 60 235 outlet;
#X obj 88 52 r beat;
#X obj 42 90 sel 6;
#X obj 142 227 s hit2;
#X connect 0 0 3 0;
#X connect 0 0 6 0;
#X connect 1 0 0 1;
#X connect 2 0 0 0;
#X connect 4 0 5 0;
#X connect 5 0 0 0;
#X coords 0 -1 1 1 30 30 2 100 100;
#X restore 368 114 pd beat1;
#N canvas 0 250 450 300 beat1 0;
#X obj 54 172 spigot;
#X obj 108 107 tgl 15 0 empty empty empty 17 7 0 10 -262144 -1 -1 0
1;
#X obj 17 44 inlet;
#X obj 60 235 outlet;
#X obj 88 52 r beat;
#X obj 42 90 sel 7;
#X obj 142 227 s hit2;
#X connect 0 0 3 0;
#X connect 0 0 6 0;
#X connect 1 0 0 1;
#X connect 2 0 0 0;
#X connect 4 0 5 0;
#X connect 5 0 0 0;
#X coords 0 -1 1 1 30 30 2 100 100;
#X restore 403 114 pd beat1;
#X obj 199 218 s hit3;
#X connect 0 0 8 0;
#X connect 1 0 8 0;
#X connect 2 0 8 0;
#X connect 3 0 8 0;
#X connect 4 0 8 0;
#X connect 5 0 8 0;
#X connect 6 0 8 0;
#X connect 7 0 8 0;
#X coords 0 -1 1 1 400 60 2 100 100;
#X restore 55 254 pd line;
#X obj 636 212 r hit3;
#X obj 492 145 *~;
#X obj 522 103 line~;
#X msg 523 64 1 \, 0 100;
#X obj 439 92 osc~;
#X obj 437 58 line~;
#X obj 484 19 r hit4;
#X msg 333 27 80 \, 120 100;
#N canvas 0 23 672 347 line 0;
#N canvas 0 250 450 300 beat1 0;
#X obj 54 172 spigot;
#X obj 108 107 tgl 15 0 empty empty empty 17 7 0 10 -262144 -1 -1 0
1;
#X obj 17 44 inlet;
#X obj 60 235 outlet;
#X obj 88 52 r beat;
#X obj 42 90 sel 0;
#X obj 142 227 s hit2;
#X connect 0 0 3 0;
#X connect 0 0 6 0;
#X connect 1 0 0 1;
#X connect 2 0 0 0;
#X connect 4 0 5 0;
#X connect 5 0 0 0;
#X coords 0 -1 1 1 30 30 2 100 100;
#X restore 162 115 pd beat1;
#N canvas 0 250 450 300 beat1 0;
#X obj 54 172 spigot;
#X obj 108 107 tgl 15 0 empty empty empty 17 7 0 10 -262144 -1 -1 0
1;
#X obj 17 44 inlet;
#X obj 60 235 outlet;
#X obj 88 52 r beat;
#X obj 42 90 sel 1;
#X obj 142 227 s hit2;
#X connect 0 0 3 0;
#X connect 0 0 6 0;
#X connect 1 0 0 1;
#X connect 2 0 0 0;
#X connect 4 0 5 0;
#X connect 5 0 0 0;
#X coords 0 -1 1 1 30 30 2 100 100;
#X restore 197 115 pd beat1;
#N canvas 0 250 450 300 beat1 0;
#X obj 54 172 spigot;
#X obj 108 107 tgl 15 0 empty empty empty 17 7 0 10 -262144 -1 -1 0
1;
#X obj 17 44 inlet;
#X obj 60 235 outlet;
#X obj 88 52 r beat;
#X obj 42 90 sel 2;
#X obj 142 227 s hit2;
#X connect 0 0 3 0;
#X connect 0 0 6 0;
#X connect 1 0 0 1;
#X connect 2 0 0 0;
#X connect 4 0 5 0;
#X connect 5 0 0 0;
#X coords 0 -1 1 1 30 30 2 100 100;
#X restore 231 115 pd beat1;
#N canvas 0 250 450 300 beat1 0;
#X obj 54 172 spigot;
#X obj 108 107 tgl 15 0 empty empty empty 17 7 0 10 -262144 -1 -1 0
1;
#X obj 17 44 inlet;
#X obj 60 235 outlet;
#X obj 88 52 r beat;
#X obj 42 90 sel 3;
#X obj 142 227 s hit2;
#X connect 0 0 3 0;
#X connect 0 0 6 0;
#X connect 1 0 0 1;
#X connect 2 0 0 0;
#X connect 4 0 5 0;
#X connect 5 0 0 0;
#X coords 0 -1 1 1 30 30 2 100 100;
#X restore 266 115 pd beat1;
#N canvas 0 250 450 300 beat1 0;
#X obj 54 172 spigot;
#X obj 108 107 tgl 15 0 empty empty empty 17 7 0 10 -262144 -1 -1 0
1;
#X obj 17 44 inlet;
#X obj 60 235 outlet;
#X obj 88 52 r beat;
#X obj 42 90 sel 4;
#X obj 142 227 s hit2;
#X connect 0 0 3 0;
#X connect 0 0 6 0;
#X connect 1 0 0 1;
#X connect 2 0 0 0;
#X connect 4 0 5 0;
#X connect 5 0 0 0;
#X coords 0 -1 1 1 30 30 2 100 100;
#X restore 299 114 pd beat1;
#N canvas 0 250 450 300 beat1 0;
#X obj 54 172 spigot;
#X obj 108 107 tgl 15 0 empty empty empty 17 7 0 10 -262144 -1 -1 0
1;
#X obj 17 44 inlet;
#X obj 60 235 outlet;
#X obj 88 52 r beat;
#X obj 42 90 sel 5;
#X obj 142 227 s hit2;
#X connect 0 0 3 0;
#X connect 0 0 6 0;
#X connect 1 0 0 1;
#X connect 2 0 0 0;
#X connect 4 0 5 0;
#X connect 5 0 0 0;
#X coords 0 -1 1 1 30 30 2 100 100;
#X restore 334 114 pd beat1;
#N canvas 0 250 450 300 beat1 0;
#X obj 54 172 spigot;
#X obj 108 107 tgl 15 0 empty empty empty 17 7 0 10 -262144 -1 -1 0
1;
#X obj 17 44 inlet;
#X obj 60 235 outlet;
#X obj 88 52 r beat;
#X obj 42 90 sel 6;
#X obj 142 227 s hit2;
#X connect 0 0 3 0;
#X connect 0 0 6 0;
#X connect 1 0 0 1;
#X connect 2 0 0 0;
#X connect 4 0 5 0;
#X connect 5 0 0 0;
#X coords 0 -1 1 1 30 30 2 100 100;
#X restore 368 114 pd beat1;
#N canvas 0 250 450 300 beat1 0;
#X obj 54 172 spigot;
#X obj 108 107 tgl 15 0 empty empty empty 17 7 0 10 -262144 -1 -1 0
1;
#X obj 17 44 inlet;
#X obj 60 235 outlet;
#X obj 88 52 r beat;
#X obj 42 90 sel 7;
#X obj 142 227 s hit2;
#X connect 0 0 3 0;
#X connect 0 0 6 0;
#X connect 1 0 0 1;
#X connect 2 0 0 0;
#X connect 4 0 5 0;
#X connect 5 0 0 0;
#X coords 0 -1 1 1 30 30 2 100 100;
#X restore 403 114 pd beat1;
#X obj 199 218 s hit4;
#X connect 0 0 8 0;
#X connect 1 0 8 0;
#X connect 2 0 8 0;
#X connect 3 0 8 0;
#X connect 4 0 8 0;
#X connect 5 0 8 0;
#X connect 6 0 8 0;
#X connect 7 0 8 0;
#X coords 0 -1 1 1 400 60 2 100 100;
#X restore 55 320 pd line;
#X obj 563 353 +~;
#X obj 582 401 +~;
#X obj 612 489 delwrite~ buffer 10000;
#X obj 578 448 +~;
#X obj 632 401 delread~ buffer 1280;
#X obj 630 438 *~ 0.7;
#X connect 1 0 4 0;
#X connect 2 0 1 1;
#X connect 3 0 1 0;
#X connect 5 0 6 0;
#X connect 6 0 7 0;
#X connect 6 0 10 0;
#X connect 7 0 8 0;
#X connect 8 0 6 1;
#X connect 9 0 5 0;
#X connect 10 0 11 0;
#X connect 12 0 13 0;
#X connect 13 0 42 1;
#X connect 14 0 13 1;
#X connect 15 0 23 0;
#X connect 23 0 14 0;
#X connect 24 0 5 1;
#X connect 25 0 43 1;
#X connect 26 0 25 1;
#X connect 28 0 26 0;
#X connect 29 0 25 0;
#X connect 30 0 29 0;
#X connect 31 0 30 0;
#X connect 33 0 28 0;
#X connect 33 0 31 0;
#X connect 34 0 42 0;
#X connect 35 0 34 1;
#X connect 36 0 35 0;
#X connect 37 0 34 0;
#X connect 38 0 37 0;
#X connect 39 0 36 0;
#X connect 39 0 40 0;
#X connect 40 0 38 0;
#X connect 42 0 43 0;
#X connect 43 0 45 0;
#X connect 45 0 44 0;
#X connect 45 0 27 0;
#X connect 46 0 47 0;
#X connect 47 0 45 1;
