#N canvas 467 176 813 409 24;
#X obj 120 195 *~;
#X obj 211 156 line~;
#X obj 112 81 line~;
#X obj 114 263 dac~;
#X obj 151 7 bng 15 250 50 0 empty empty empty 17 7 0 10 -262144 -1
-1;
#X msg 218 110 1 \, 0 50;
#X msg 101 38 800 \, 400 50;
#X obj 118 121 phasor~;
#X obj 351 109 noise~;
#X obj 338 231 dac~;
#X obj 350 176 *~;
#X obj 442 181 line~;
#X msg 473 138 1 \, 0 100;
#X obj 604 125 osc~ 80;
#X obj 618 187 *~;
#X obj 709 162 line~;
#X msg 715 115 1 \, 0 100;
#X obj 617 246 dac~;
#X obj 654 61 bng 15 250 50 0 empty empty empty 17 7 0 10 -262144 -1
-1;
#X obj 596 60 bng 15 250 50 0 empty empty empty 17 7 0 10 -262144 -1
-1;
#X obj 343 30 key;
#X obj 422 34 keyup;
#X floatatom 333 69 5 0 0 0 - - -;
#X floatatom 423 72 5 0 0 0 - - -;
#X obj 259 67 print;
#X connect 0 0 3 0;
#X connect 0 0 3 1;
#X connect 1 0 0 1;
#X connect 2 0 7 0;
#X connect 4 0 5 0;
#X connect 4 0 6 0;
#X connect 5 0 1 0;
#X connect 6 0 2 0;
#X connect 7 0 0 0;
#X connect 8 0 10 0;
#X connect 10 0 9 0;
#X connect 10 0 9 1;
#X connect 11 0 10 1;
#X connect 12 0 11 0;
#X connect 13 0 14 0;
#X connect 14 0 17 0;
#X connect 14 0 17 1;
#X connect 15 0 14 1;
#X connect 16 0 15 0;
#X connect 18 0 16 0;
#X connect 19 0 12 0;
#X connect 20 0 22 0;
#X connect 20 0 24 0;
#X connect 21 0 23 0;
