#N canvas 0 23 778 484 10;
#X obj 268 133 delwrite~ buffer 10000;
#X obj 199 386 delread~ buffer 10;
#X obj 401 384 delread~ buffer 10;
#X obj 307 464 dac~;
#X obj 311 173 flatgui/knob 32 32 0 127 0 0 empty empty empty 0 -8
0 8 7.7305e+06 4.37752e+06 4.37752e+06 3051 1;
#X floatatom 315 230 5 0 0 0 - - -;
#X floatatom 314 300 5 0 0 0 - - -;
#X floatatom 374 305 5 0 0 0 - - -;
#X obj 258 87 *~;
#X obj 336 75 -~;
#X obj 325 46 sig~ 1;
#X obj 315 264 expr ($f1/127)*35;
#X obj 374 285 expr 35-$f1;
#X obj 254 44 osc~ 60;
#X obj 126 70 tgl 15 0 empty empty empty 17 7 0 10 -262144 -1 -1 1
1;
#X obj 122 126 random 127;
#X obj 123 98 metro 500;
#X obj 384 64 line~;
#X msg 385 33 0 \, 1 500;
#X connect 1 0 3 0;
#X connect 2 0 3 1;
#X connect 4 0 5 0;
#X connect 5 0 11 0;
#X connect 6 0 1 0;
#X connect 7 0 2 0;
#X connect 8 0 0 0;
#X connect 9 0 8 1;
#X connect 10 0 9 0;
#X connect 11 0 6 0;
#X connect 11 0 12 0;
#X connect 12 0 7 0;
#X connect 13 0 8 0;
#X connect 14 0 16 0;
#X connect 15 0 4 0;
#X connect 15 0 18 0;
#X connect 16 0 15 0;
#X connect 17 0 9 1;
#X connect 18 0 17 0;
