#N canvas 24 80 1003 789 16;
#X declare mrpeach;
#X obj 202 177 mrpeach/udpreceive 6666;
#X obj 197 262 mrpeach/routeOSC /accxyz;
#X obj 196 210 unpackOSC;
#X obj 261 323 unpack 0 0 0;
#X floatatom 212 355 5 0 0 0 - - -;
#X floatatom 304 362 5 0 0 0 - - -;
#X floatatom 374 365 5 0 0 0 - - -;
#X obj 107 86 mrpeach/routeOSC;
#X obj 591 72 declare mrpeach;
#X obj 48 530 osc~ 120;
#X obj 197 728 dac~;
#N canvas 0 23 582 484 vline 0;
#X obj 138 123 f;
#X obj 168 164 -;
#X obj 156 80 t f b f;
#X floatatom 166 248 5 0 0 0 - - -;
#X obj 168 206 abs;
#X obj 138 331 line~;
#X obj 155 287 pack 0 50;
#X obj 162 25 inlet;
#X obj 144 397 outlet~;
#X connect 0 0 1 0;
#X connect 1 0 4 0;
#X connect 2 0 0 1;
#X connect 2 1 0 0;
#X connect 2 2 1 1;
#X connect 3 0 6 0;
#X connect 4 0 3 0;
#X connect 5 0 8 0;
#X connect 6 0 5 0;
#X connect 7 0 2 0;
#X restore 162 426 pd vline;
#N canvas 0 23 582 484 vline 0;
#X obj 138 123 f;
#X obj 168 164 -;
#X obj 156 80 t f b f;
#X floatatom 166 248 5 0 0 0 - - -;
#X obj 168 206 abs;
#X obj 138 331 line~;
#X obj 155 287 pack 0 50;
#X obj 162 25 inlet;
#X obj 144 397 outlet~;
#X connect 0 0 1 0;
#X connect 1 0 4 0;
#X connect 2 0 0 1;
#X connect 2 1 0 0;
#X connect 2 2 1 1;
#X connect 3 0 6 0;
#X connect 4 0 3 0;
#X connect 5 0 8 0;
#X connect 6 0 5 0;
#X connect 7 0 2 0;
#X restore 301 435 pd vline;
#X obj 223 532 osc~ 240;
#N canvas 0 23 582 484 vline 0;
#X obj 138 123 f;
#X obj 168 164 -;
#X obj 156 80 t f b f;
#X floatatom 166 248 5 0 0 0 - - -;
#X obj 168 206 abs;
#X obj 138 331 line~;
#X obj 155 287 pack 0 50;
#X obj 162 25 inlet;
#X obj 144 397 outlet~;
#X connect 0 0 1 0;
#X connect 1 0 4 0;
#X connect 2 0 0 1;
#X connect 2 1 0 0;
#X connect 2 2 1 1;
#X connect 3 0 6 0;
#X connect 4 0 3 0;
#X connect 5 0 8 0;
#X connect 6 0 5 0;
#X connect 7 0 2 0;
#X restore 425 431 pd vline;
#X obj 349 545 osc~ 360;
#X obj 131 469 *~ 20;
#X obj 69 620 *~ 2;
#X obj 244 622 *~ 2;
#X obj 397 598 *~ 2;
#X obj 285 481 *~ 30;
#X obj 414 475 *~ 40;
#X connect 0 0 2 0;
#X connect 1 0 3 0;
#X connect 2 0 1 0;
#X connect 3 0 4 0;
#X connect 3 1 5 0;
#X connect 3 2 6 0;
#X connect 4 0 11 0;
#X connect 5 0 12 0;
#X connect 6 0 14 0;
#X connect 9 0 17 0;
#X connect 11 0 16 0;
#X connect 12 0 20 0;
#X connect 13 0 18 0;
#X connect 14 0 21 0;
#X connect 15 0 19 0;
#X connect 16 0 9 0;
#X connect 17 0 10 0;
#X connect 17 0 10 1;
#X connect 18 0 10 0;
#X connect 18 0 10 1;
#X connect 19 0 10 0;
#X connect 19 0 10 1;
#X connect 20 0 13 0;
#X connect 21 0 15 0;
