#N canvas 59 74 749 377 16;
#X obj 175 7 bng 15 250 50 0 empty empty empty 17 7 0 10 -262144 -1
-1;
#X obj 124 261 dac~;
#N canvas 183 234 767 423 piano 0;
#X obj 133 325 *~;
#X obj 178 286 line~;
#X msg 167 169 0 \, 1 100;
#X obj 274 152 delay 100;
#X msg 245 208 1 \, 0.5 300;
#X obj 395 159 delay 300;
#X msg 359 206 0.5 \, 0.3 500;
#X msg 513 203 0.3 \, 0 300;
#X obj 70 284 osc~ 880;
#X obj 530 166 delay 500;
#X obj 77 27 inlet;
#X obj 128 376 outlet~;
#X obj 76 87 t b f;
#X obj 167 141 bng 15 250 50 0 empty empty empty 17 7 0 10 -262144
-1 -1;
#X obj 78 56 mtof;
#X connect 0 0 11 0;
#X connect 1 0 0 1;
#X connect 2 0 1 0;
#X connect 3 0 4 0;
#X connect 3 0 5 0;
#X connect 4 0 1 0;
#X connect 5 0 6 0;
#X connect 5 0 9 0;
#X connect 6 0 1 0;
#X connect 7 0 1 0;
#X connect 8 0 0 0;
#X connect 9 0 7 0;
#X connect 10 0 14 0;
#X connect 12 0 13 0;
#X connect 12 1 8 0;
#X connect 13 0 2 0;
#X connect 14 0 12 0;
#X restore 122 201 pd piano;
