#N canvas 272 23 943 618 10;
#X obj 232 69 bng 15 250 50 0 empty empty empty 17 7 0 10 -262144 -1
-1;
#X obj 229 121 i;
#X obj 269 118 + 1;
#X floatatom 227 156 5 0 0 0 - - -;
#X floatatom 255 79 5 0 0 0 - - -;
#X obj 416 199 until;
#X connect 0 0 1 0;
#X connect 1 0 2 0;
#X connect 1 0 3 0;
#X connect 2 0 1 1;
#X connect 4 0 1 1;
