#N canvas 570 165 700 638 16;
#X obj 128 81 netreceive -u -b 9998;
#X obj 127 120 mrpeach/unpackOSC;
#X obj 123 160 mrpeach/routeOSC /accxyz;
#X obj 115 201 unpack 0 0 0;
#X floatatom 68 239 5 0 0 0 - - -;
#X floatatom 169 248 5 0 0 0 - - -;
#X floatatom 257 252 5 0 0 0 - - -;
#X obj 380 265 dac~;
#X obj 37 582 delwrite~ buffer1 10000;
#X obj 17 198 osc~ 80;
#X obj 25 402 *~;
#X obj 67 495 osc~ 160;
#X obj 90 358 -;
#X obj 51 317 f;
#X obj 103 427 abs;
#X floatatom 184 509 5 0 0 0 - - -;
#X floatatom 96 396 5 0 0 0 - - -;
#X obj 62 280 t a b a;
#X obj 143 461 f;
#X obj 175 429 t b a;
#X obj 197 472 expr max($f1+$f2-3 \, 0);
#X obj 68 534 *~;
#X obj 384 153 delread~ buffer1 0;
#X connect 0 0 1 0;
#X connect 1 0 2 0;
#X connect 2 0 3 0;
#X connect 3 0 4 0;
#X connect 3 1 5 0;
#X connect 3 2 6 0;
#X connect 4 0 17 0;
#X connect 9 0 10 0;
#X connect 11 0 21 0;
#X connect 12 0 16 0;
#X connect 13 0 12 0;
#X connect 14 0 19 0;
#X connect 15 0 11 0;
#X connect 16 0 14 0;
#X connect 17 0 13 1;
#X connect 17 1 13 0;
#X connect 17 2 12 1;
#X connect 18 0 20 0;
#X connect 19 0 18 0;
#X connect 19 1 20 1;
#X connect 20 0 18 1;
#X connect 20 0 15 0;
#X connect 21 0 8 0;
#X connect 22 0 7 0;
