#N canvas 403 46 1084 560 16;
#X msg 367 32 connect localhost 8888;
#X obj 449 228 mrpeach/packOSC;
#X obj 99 170 mrpeach/unpackOSC;
#X obj 410 359 mrpeach/udpsend;
#X obj 111 105 mrpeach/udpreceive 8888;
#X obj 89 227 routeOSC /left /right;
#X msg 494 184 send /right 1;
#X msg 405 85 send /left/1 0.6 0.8 0.9;
#X obj 65 287 routeOSC /1 /2 /3 /4 /5;
#X obj 70 339 unpack 0 0 0;
#X floatatom 34 394 5 0 0 0 - - -;
#X floatatom 112 392 5 0 0 0 - - -;
#X floatatom 185 390 5 0 0 0 - - -;
#X msg 308 139 sendtyped /left/right fffff 1.1 2.1 3.1 4.1 5.1;
#X connect 0 0 3 0;
#X connect 1 0 3 0;
#X connect 2 0 5 0;
#X connect 4 0 2 0;
#X connect 5 0 8 0;
#X connect 6 0 1 0;
#X connect 7 0 1 0;
#X connect 8 0 9 0;
#X connect 9 0 10 0;
#X connect 9 1 11 0;
#X connect 9 2 12 0;
#X connect 13 0 1 0;
