#N canvas 123 167 701 512 24;
#X obj 54 184 osc~;
#X floatatom 190 1 5 0 0 0 - - -;
#X obj 189 41 mtof;
#X floatatom 192 80 5 0 0 0 - - -;
#X obj 54 140 * 1;
#X obj 121 183 osc~;
#X obj 190 183 osc~;
#X obj 257 182 osc~;
#X obj 323 182 osc~;
#X obj 390 181 osc~;
#X obj 459 181 osc~;
#X obj 526 180 osc~;
#X obj 121 139 * 2;
#X obj 190 139 * 3;
#X obj 257 138 * 4;
#X obj 323 138 * 5;
#X obj 390 137 * 6;
#X obj 459 137 * 7;
#X obj 526 136 * 8;
#X obj 166 479 dac~;
#X obj 123 333 +~;
#X obj 216 333 +~;
#X obj 200 388 +~;
#X obj 24 247 *~ 0.3;
#X obj 134 250 *~ 0.2;
#X obj 242 256 *~ 0.15;
#X obj 356 256 *~ 0.2;
#X obj 458 253 *~ 0.1;
#X obj 228 435 +~;
#X connect 0 0 23 0;
#X connect 1 0 2 0;
#X connect 2 0 3 0;
#X connect 3 0 4 0;
#X connect 3 0 12 0;
#X connect 3 0 13 0;
#X connect 3 0 14 0;
#X connect 3 0 15 0;
#X connect 3 0 16 0;
#X connect 3 0 17 0;
#X connect 3 0 18 0;
#X connect 4 0 0 0;
#X connect 5 0 24 0;
#X connect 6 0 25 0;
#X connect 7 0 26 0;
#X connect 8 0 27 0;
#X connect 12 0 5 0;
#X connect 13 0 6 0;
#X connect 14 0 7 0;
#X connect 15 0 8 0;
#X connect 16 0 9 0;
#X connect 17 0 10 0;
#X connect 18 0 11 0;
#X connect 20 0 22 0;
#X connect 21 0 22 1;
#X connect 22 0 28 0;
#X connect 23 0 20 0;
#X connect 24 0 20 1;
#X connect 25 0 21 0;
#X connect 26 0 21 1;
#X connect 27 0 28 1;
#X connect 28 0 19 0;
#X connect 28 0 19 1;
