#N canvas 350 98 818 739 24;
#N canvas 0 23 537 576 piano 1;
#X floatatom 196 38 5 0 0 0 - - -;
#X obj 107 148 osc~;
#X obj 191 149 osc~;
#X obj 280 151 osc~;
#X obj 370 151 osc~;
#X obj 107 97 * 1;
#X obj 186 96 * 2;
#X obj 282 100 * 3;
#X obj 372 98 * 4;
#X obj 136 310 +~;
#X obj 320 307 +~;
#X obj 228 385 +~;
#X obj 202 0 inlet;
#X obj 220 455 outlet~;
#X obj 398 217 *~ 0.1;
#X obj 186 217 *~ 0.1;
#X obj 78 217 *~ 0.6;
#X obj 290 217 *~ 0.1;
#X connect 0 0 5 0;
#X connect 0 0 6 0;
#X connect 0 0 7 0;
#X connect 0 0 8 0;
#X connect 1 0 16 0;
#X connect 2 0 15 0;
#X connect 3 0 17 0;
#X connect 4 0 14 0;
#X connect 5 0 1 0;
#X connect 6 0 2 0;
#X connect 7 0 3 0;
#X connect 8 0 4 0;
#X connect 9 0 11 0;
#X connect 10 0 11 1;
#X connect 11 0 13 0;
#X connect 12 0 0 0;
#X connect 14 0 10 1;
#X connect 15 0 9 1;
#X connect 16 0 9 0;
#X connect 17 0 10 0;
#X restore 21 476 pd piano;
#X floatatom 120 410 5 0 0 0 - - -;
#X obj 104 633 dac~;
#X obj 110 569 *~;
#X obj 254 532 line~;
#X obj 224 575 expr~ $v1*$v1;
#X obj 145 319 t b a;
#X obj 147 251 mtof;
#X msg 72 155 72;
#X msg 135 153 74;
#X msg 200 157 76;
#X msg 267 153 77;
#X msg 336 157 79;
#X msg 400 153 81;
#X msg 464 152 83;
#X msg 536 161 84;
#X msg 272 416 0.6 10;
#X obj 397 360 delay 10;
#X obj 335 308 t b b;
#X obj 346 270 bng 15 250 50 0 empty empty empty 17 7 0 10 -262144
-1 -1;
#X msg 394 436 0.5 100;
#X obj 525 412 delay 100;
#X msg 528 469 0.1 1000;
#X msg 663 510 0 300;
#X obj 107 2 key;
#X floatatom 107 43 5 0 0 0 - - -;
#X obj 7 91 select 49 50 51 52 53 54 55 56;
#X obj 541 34 metro 100;
#X obj 544 4 tgl 15 0 empty empty empty 17 7 0 10 -262144 -1 -1 1 1
;
#X floatatom 617 144 5 0 0 0 - - -;
#X obj 370 232 select 0 1 2 3 4 5 6 7 8;
#X obj 556 93 random 8;
#X obj 575 286 notein;
#N canvas 0 23 537 576 piano 0;
#X floatatom 196 38 5 0 0 0 - - -;
#X obj 107 148 osc~;
#X obj 191 149 osc~;
#X obj 280 151 osc~;
#X obj 370 151 osc~;
#X obj 107 97 * 1;
#X obj 186 96 * 2;
#X obj 282 100 * 3;
#X obj 372 98 * 4;
#X obj 136 310 +~;
#X obj 320 307 +~;
#X obj 228 385 +~;
#X obj 202 0 inlet;
#X obj 220 455 outlet~;
#X obj 398 217 *~ 0.1;
#X obj 186 217 *~ 0.1;
#X obj 78 217 *~ 0.6;
#X obj 290 217 *~ 0.1;
#X connect 0 0 5 0;
#X connect 0 0 6 0;
#X connect 0 0 7 0;
#X connect 0 0 8 0;
#X connect 1 0 16 0;
#X connect 2 0 15 0;
#X connect 3 0 17 0;
#X connect 4 0 14 0;
#X connect 5 0 1 0;
#X connect 6 0 2 0;
#X connect 7 0 3 0;
#X connect 8 0 4 0;
#X connect 9 0 11 0;
#X connect 10 0 11 1;
#X connect 11 0 13 0;
#X connect 12 0 0 0;
#X connect 14 0 10 1;
#X connect 15 0 9 1;
#X connect 16 0 9 0;
#X connect 17 0 10 0;
#X restore 147 477 pd piano;
#X connect 0 0 3 0;
#X connect 1 0 0 0;
#X connect 3 0 2 0;
#X connect 3 0 2 1;
#X connect 4 0 5 0;
#X connect 5 0 3 1;
#X connect 6 0 19 0;
#X connect 6 1 1 0;
#X connect 7 0 6 0;
#X connect 8 0 7 0;
#X connect 9 0 7 0;
#X connect 10 0 7 0;
#X connect 11 0 7 0;
#X connect 12 0 7 0;
#X connect 13 0 7 0;
#X connect 14 0 7 0;
#X connect 15 0 7 0;
#X connect 16 0 4 0;
#X connect 17 0 20 0;
#X connect 17 0 21 0;
#X connect 18 0 17 0;
#X connect 18 1 16 0;
#X connect 19 0 18 0;
#X connect 20 0 4 0;
#X connect 21 0 22 0;
#X connect 22 0 4 0;
#X connect 23 0 4 0;
#X connect 24 0 25 0;
#X connect 25 0 26 0;
#X connect 26 0 8 0;
#X connect 26 1 9 0;
#X connect 26 2 10 0;
#X connect 26 3 11 0;
#X connect 26 4 12 0;
#X connect 26 5 13 0;
#X connect 26 6 14 0;
#X connect 26 7 15 0;
#X connect 27 0 31 0;
#X connect 28 0 27 0;
#X connect 30 0 8 0;
#X connect 30 1 9 0;
#X connect 30 2 10 0;
#X connect 30 3 11 0;
#X connect 30 4 12 0;
#X connect 30 5 13 0;
#X connect 30 6 14 0;
#X connect 30 7 15 0;
#X connect 31 0 29 0;
