#N canvas 146 88 965 713 16;
#X obj 267 129 phasor~ 1;
#X obj 151 127 sig~ 1;
#X obj 205 194 -~;
#X obj 88 214 osc~ 80;
#X obj 142 259 *~;
#X obj 300 224 hsl 128 15 0 1 0 0 empty empty empty -2 -8 0 10 -262144
-1 -1 0 1;
#X floatatom 291 271 5 0 0 0 - - -;
#X obj 169 337 *~;
#X obj 305 349 expr 1-$f1;
#X obj 108 342 *~;
#X obj 171 414 delwrite~ bufferright 1000;
#X obj 110 482 delwrite~ bufferleft 1000;
#X obj 636 400 dac~;
#X obj 692 318 delread4~ bufferright 0;
#X obj 598 274 delread4~ bufferleft 300;
#X obj 416 269 * 35;
#X obj 466 318 expr 35-$f1;
#X connect 0 0 2 1;
#X connect 1 0 2 0;
#X connect 2 0 4 1;
#X connect 3 0 4 0;
#X connect 4 0 7 0;
#X connect 4 0 9 0;
#X connect 5 0 6 0;
#X connect 5 0 15 0;
#X connect 6 0 7 1;
#X connect 6 0 8 0;
#X connect 7 0 10 0;
#X connect 8 0 9 1;
#X connect 9 0 11 0;
#X connect 13 0 12 1;
#X connect 14 0 12 0;
#X connect 15 0 14 0;
#X connect 15 0 16 0;
#X connect 16 0 13 0;
