#N canvas 223 23 918 590 24;
#X obj 303 151 osc~;
#X obj 304 88 line~;
#X obj 398 172 line~;
#X obj 305 220 *~;
#X obj 276 416 dac~;
#X obj 336 278 delwrite~ buffer 10000;
#X obj 470 13 bng 15 250 50 0 empty empty empty 17 7 0 10 -262144 -1
-1;
#X msg 296 43 80 \, 90 3000;
#X msg 509 105 1 \, 0 3000;
#X obj 143 195 osc~;
#X obj 118 122 line~;
#X obj 232 218 *~;
#X msg 93 81 1 \, 2 3000;
#X msg 393 97 0 \, 1 10;
#X obj 480 59 delay 10;
#X obj 337 340 delread~ buffer 0;
#X obj 64 338 delread~ buffer 100;
#X obj 494 180 delread~ buffer 30;
#X obj 470 228 *~ 0.9;
#X connect 0 0 11 1;
#X connect 1 0 0 0;
#X connect 2 0 3 1;
#X connect 3 0 5 0;
#X connect 6 0 7 0;
#X connect 6 0 12 0;
#X connect 6 0 13 0;
#X connect 6 0 14 0;
#X connect 7 0 1 0;
#X connect 8 0 2 0;
#X connect 9 0 11 0;
#X connect 10 0 9 0;
#X connect 11 0 3 0;
#X connect 12 0 10 0;
#X connect 13 0 2 0;
#X connect 14 0 8 0;
#X connect 15 0 4 1;
#X connect 16 0 4 0;
#X connect 17 0 18 0;
#X connect 18 0 5 0;
