#N canvas 168 30 1087 774 10;
#X obj 445 785 expr 1-$f1;
#X obj 285 846 *~;
#X obj 423 707 *~;
#X obj 825 800 delread4~ bufferleft;
#X obj 274 914 delwrite~ bufferleft 1000;
#X obj 1018 838 delread4~ bufferright;
#X obj 957 985 dac~;
#X obj 523 910 delwrite~ bufferright 1000;
#X obj 626 291 tgl 50 0 empty empty empty 17 7 0 10 -204800 -1 -1 0
1;
#X floatatom 489 600 5 0 0 0 - - -;
#X obj 623 381 metro 400;
#X obj 284 370 readsf~;
#X msg 169 277 1;
#X obj 204 455 tgl 50 0 empty empty start_from_here 55 35 0 16 -258113
-1 -1 0 1;
#X obj 204 521 metro 400;
#X msg 48 564 0;
#X floatatom 232 684 5 0 0 0 - - -;
#X obj 233 621 / 100;
#X obj 116 793 *~;
#X obj 360 619 > 100;
#X obj 536 521 / 100;
#X obj 171 755 expr if($f1<=1 \, $f1 \, 1);
#X obj 229 550 i;
#X obj 651 727 expr if($f1<=1 \, $f1 \, 1);
#X obj 621 496 f;
#X obj 654 594 > 1;
#X obj 1045 306 tgl 50 0 empty empty empty 17 7 0 10 -204800 -1 -1
0 1;
#X obj 1046 401 metro 400;
#X floatatom 893 629 5 0 0 0 - - -;
#X obj 895 574 / 100;
#X obj 892 493 i;
#X msg 868 421 100;
#X obj 866 688 expr if($f1>=0 \, $f1 \, 0);
#X obj 655 809 *~;
#X msg 522 424 0.5;
#X obj 974 492 - 0.333;
#X obj 430 309 loadbang;
#N canvas 596 56 725 687 back 0;
#X obj 234 395 bp~ 2000 4;
#X floatatom 127 360 5 0 0 0 - - -;
#X obj 35 320 env~;
#X floatatom 48 368 5 0 0 0 - - -;
#X obj 103 395 bp~ 2000 4;
#X floatatom 172 361 5 0 0 0 - - -;
#X obj 377 398 bp~ 2000 4, f 11;
#X obj 517 396 bp~ 2000 4;
#X floatatom 256 367 5 0 0 0 - - -;
#X floatatom 299 367 5 0 0 0 - - -;
#X obj 249 324 * 2;
#X obj 359 324 * 3;
#X floatatom 390 371 5 0 0 0 - - -;
#X floatatom 437 374 5 0 0 0 - - -;
#X floatatom 533 368 5 0 0 0 - - -;
#X floatatom 577 366 5 0 0 0 - - -;
#X obj 490 351 * 4;
#X obj 585 211 t b f;
#X obj 443 241 / 5;
#X obj 507 270 + 1;
#X obj 584 294 *;
#X floatatom 617 332 5 0 0 0 - - -;
#X obj 275 505 *~ 2;
#X obj 275 592 dac~;
#X obj 21 239 noise~;
#X msg 150 157 60;
#X obj 219 53 inlet;
#X obj 82 172 tgl 15 0 empty empty empty 17 7 0 10 -262144 -1 -1 0
1;
#X obj 78 292 *~;
#X msg 263 153 270;
#X msg 383 149 0.004;
#X connect 0 0 22 0;
#X connect 1 0 4 1;
#X connect 2 0 3 0;
#X connect 4 0 22 0;
#X connect 5 0 4 2;
#X connect 6 0 22 0;
#X connect 7 0 22 0;
#X connect 8 0 0 1;
#X connect 9 0 0 2;
#X connect 10 0 8 0;
#X connect 11 0 12 0;
#X connect 12 0 6 1;
#X connect 13 0 6 2;
#X connect 14 0 7 1;
#X connect 15 0 7 2;
#X connect 16 0 14 0;
#X connect 17 0 20 0;
#X connect 17 1 20 1;
#X connect 18 0 19 0;
#X connect 19 0 20 0;
#X connect 20 0 21 0;
#X connect 20 0 22 1;
#X connect 22 0 23 0;
#X connect 22 0 23 1;
#X connect 24 0 2 0;
#X connect 24 0 28 0;
#X connect 25 0 1 0;
#X connect 25 0 10 0;
#X connect 25 0 11 0;
#X connect 25 0 16 0;
#X connect 26 0 25 0;
#X connect 26 0 29 0;
#X connect 26 0 30 0;
#X connect 26 0 27 0;
#X connect 27 0 28 1;
#X connect 28 0 4 0;
#X connect 28 0 0 0;
#X connect 28 0 6 0;
#X connect 28 0 7 0;
#X connect 29 0 5 0;
#X connect 29 0 9 0;
#X connect 29 0 13 0;
#X connect 29 0 15 0;
#X connect 29 0 18 0;
#X connect 30 0 17 0;
#X restore 96 622 pd back;
#N canvas 715 88 725 687 back 0;
#X obj 234 395 bp~ 2000 4;
#X floatatom 127 360 5 0 0 0 - - -;
#X obj 51 319 env~;
#X floatatom 48 368 5 0 0 0 - - -;
#X obj 103 395 bp~ 2000 4;
#X floatatom 172 361 5 0 0 0 - - -;
#X obj 377 398 bp~ 2000 4, f 11;
#X obj 517 396 bp~ 2000 4;
#X floatatom 256 367 5 0 0 0 - - -;
#X floatatom 299 367 5 0 0 0 - - -;
#X obj 249 324 * 2;
#X obj 359 324 * 3;
#X floatatom 390 371 5 0 0 0 - - -;
#X floatatom 437 374 5 0 0 0 - - -;
#X floatatom 533 368 5 0 0 0 - - -;
#X floatatom 577 366 5 0 0 0 - - -;
#X obj 490 351 * 4;
#X obj 585 211 t b f;
#X obj 443 241 / 5;
#X obj 507 270 + 1;
#X obj 584 294 *;
#X floatatom 617 332 5 0 0 0 - - -;
#X obj 275 505 *~ 2;
#X obj 275 592 dac~;
#X obj 21 239 noise~;
#X obj 253 36 inlet;
#X obj 95 126 tgl 15 0 empty empty empty 17 7 0 10 -262144 -1 -1 0
1;
#X obj 73 284 *~;
#X msg 150 157 240;
#X msg 263 153 270;
#X msg 383 149 0.001;
#X connect 0 0 22 0;
#X connect 1 0 4 1;
#X connect 2 0 3 0;
#X connect 4 0 22 0;
#X connect 5 0 4 2;
#X connect 6 0 22 0;
#X connect 7 0 22 0;
#X connect 8 0 0 1;
#X connect 9 0 0 2;
#X connect 10 0 8 0;
#X connect 11 0 12 0;
#X connect 12 0 6 1;
#X connect 13 0 6 2;
#X connect 14 0 7 1;
#X connect 15 0 7 2;
#X connect 16 0 14 0;
#X connect 17 0 20 0;
#X connect 17 1 20 1;
#X connect 18 0 19 0;
#X connect 19 0 20 0;
#X connect 20 0 21 0;
#X connect 20 0 22 1;
#X connect 22 0 23 0;
#X connect 22 0 23 1;
#X connect 24 0 2 0;
#X connect 24 0 27 0;
#X connect 25 0 26 0;
#X connect 25 0 28 0;
#X connect 25 0 29 0;
#X connect 25 0 30 0;
#X connect 26 0 27 1;
#X connect 27 0 4 0;
#X connect 27 0 0 0;
#X connect 27 0 6 0;
#X connect 27 0 7 0;
#X connect 28 0 1 0;
#X connect 28 0 10 0;
#X connect 28 0 11 0;
#X connect 28 0 16 0;
#X connect 29 0 5 0;
#X connect 29 0 9 0;
#X connect 29 0 13 0;
#X connect 29 0 15 0;
#X connect 29 0 18 0;
#X connect 30 0 17 0;
#X restore 733 347 pd back;
#N canvas 715 88 725 687 back 0;
#X obj 234 395 bp~ 2000 4;
#X floatatom 127 360 5 0 0 0 - - -;
#X obj 51 319 env~;
#X floatatom 48 368 5 0 0 0 - - -;
#X obj 103 395 bp~ 2000 4;
#X floatatom 172 361 5 0 0 0 - - -;
#X obj 377 398 bp~ 2000 4, f 11;
#X obj 517 396 bp~ 2000 4;
#X floatatom 256 367 5 0 0 0 - - -;
#X floatatom 299 367 5 0 0 0 - - -;
#X obj 249 324 * 2;
#X obj 359 324 * 3;
#X floatatom 390 371 5 0 0 0 - - -;
#X floatatom 437 374 5 0 0 0 - - -;
#X floatatom 533 368 5 0 0 0 - - -;
#X floatatom 577 366 5 0 0 0 - - -;
#X obj 490 351 * 4;
#X obj 585 211 t b f;
#X obj 443 241 / 5;
#X obj 507 270 + 1;
#X obj 584 294 *;
#X floatatom 617 332 5 0 0 0 - - -;
#X obj 275 505 *~ 2;
#X obj 275 592 dac~;
#X obj 21 239 noise~;
#X obj 253 36 inlet;
#X obj 95 126 tgl 15 0 empty empty empty 17 7 0 10 -262144 -1 -1 0
1;
#X obj 73 284 *~;
#X msg 150 157 480;
#X msg 263 153 370;
#X msg 383 149 0.0005;
#X connect 0 0 22 0;
#X connect 1 0 4 1;
#X connect 2 0 3 0;
#X connect 4 0 22 0;
#X connect 5 0 4 2;
#X connect 6 0 22 0;
#X connect 7 0 22 0;
#X connect 8 0 0 1;
#X connect 9 0 0 2;
#X connect 10 0 8 0;
#X connect 11 0 12 0;
#X connect 12 0 6 1;
#X connect 13 0 6 2;
#X connect 14 0 7 1;
#X connect 15 0 7 2;
#X connect 16 0 14 0;
#X connect 17 0 20 0;
#X connect 17 1 20 1;
#X connect 18 0 19 0;
#X connect 19 0 20 0;
#X connect 20 0 21 0;
#X connect 20 0 22 1;
#X connect 22 0 23 0;
#X connect 22 0 23 1;
#X connect 24 0 2 0;
#X connect 24 0 27 0;
#X connect 25 0 26 0;
#X connect 25 0 28 0;
#X connect 25 0 29 0;
#X connect 25 0 30 0;
#X connect 26 0 27 1;
#X connect 27 0 4 0;
#X connect 27 0 0 0;
#X connect 27 0 6 0;
#X connect 27 0 7 0;
#X connect 28 0 1 0;
#X connect 28 0 10 0;
#X connect 28 0 11 0;
#X connect 28 0 16 0;
#X connect 29 0 5 0;
#X connect 29 0 9 0;
#X connect 29 0 13 0;
#X connect 29 0 15 0;
#X connect 29 0 18 0;
#X connect 30 0 17 0;
#X restore 1152 368 pd back;
#X obj 701 496 + 2;
#X obj 316 548 + 2;
#X obj 410 384 bng 15 250 50 0 empty empty empty 17 7 0 10 -262144
-1 -1;
#X obj 243 231 bng 15 250 50 0 empty empty empty 17 7 0 10 -262144
-1 -1;
#X obj 1044 584 noise~;
#X obj 1059 686 dac~;
#X obj 1109 648 *~;
#X obj 1032 626 tgl 15 0 empty empty empty 17 7 0 10 -262144 -1 -1
0 1;
#X obj 951 615 < 0.1;
#X obj 1115 616 *~;
#X msg 1151 572 0.01;
#X obj 784 932 writesf~;
#X msg 1002 770 stop;
#X obj 1008 971 writesf~;
#X msg 704 867 open left.wav \, start;
#X msg 1038 887 open right.wav \, start;
#X msg 317 230 open sound6.wav;
#X connect 0 0 1 1;
#X connect 1 0 4 0;
#X connect 2 0 33 0;
#X connect 3 0 51 0;
#X connect 5 0 53 0;
#X connect 5 0 6 0;
#X connect 5 0 6 1;
#X connect 8 0 10 0;
#X connect 8 0 38 0;
#X connect 10 0 24 0;
#X connect 11 0 18 0;
#X connect 11 0 2 0;
#X connect 12 0 11 0;
#X connect 13 0 14 0;
#X connect 13 0 37 0;
#X connect 14 0 22 0;
#X connect 15 0 22 0;
#X connect 17 0 16 0;
#X connect 17 0 21 0;
#X connect 18 0 1 0;
#X connect 19 0 8 0;
#X connect 20 0 9 0;
#X connect 20 0 23 0;
#X connect 20 0 25 0;
#X connect 21 0 18 1;
#X connect 22 0 17 0;
#X connect 22 0 19 0;
#X connect 22 0 41 0;
#X connect 23 0 2 1;
#X connect 23 0 0 0;
#X connect 24 0 20 0;
#X connect 24 0 40 0;
#X connect 25 0 26 0;
#X connect 26 0 27 0;
#X connect 26 0 39 0;
#X connect 27 0 30 0;
#X connect 28 0 48 0;
#X connect 29 0 28 0;
#X connect 29 0 32 0;
#X connect 30 0 29 0;
#X connect 30 0 35 0;
#X connect 31 0 30 0;
#X connect 32 0 33 1;
#X connect 33 0 7 0;
#X connect 34 0 24 0;
#X connect 35 0 30 1;
#X connect 36 0 15 0;
#X connect 36 0 34 0;
#X connect 36 0 31 0;
#X connect 40 0 24 1;
#X connect 41 0 22 1;
#X connect 42 0 15 0;
#X connect 42 0 34 0;
#X connect 42 0 31 0;
#X connect 43 0 13 0;
#X connect 43 0 42 0;
#X connect 43 0 12 0;
#X connect 43 0 54 0;
#X connect 43 0 55 0;
#X connect 44 0 49 0;
#X connect 46 0 45 0;
#X connect 46 0 45 1;
#X connect 47 0 46 0;
#X connect 47 0 50 0;
#X connect 48 0 47 0;
#X connect 49 0 46 1;
#X connect 50 0 49 1;
#X connect 52 0 51 0;
#X connect 52 0 53 0;
#X connect 54 0 51 0;
#X connect 55 0 53 0;
#X connect 56 0 11 0;
