#N canvas 0 23 1440 775 10;
#X obj 577 794 dac~;
#X obj 299 684 *~ 0.1;
#X obj 385 681 *~ 0.1;
#X obj 317 439 *~;
#X obj 311 341 lop~ 40;
#X obj 334 232 phasor~ 0.3;
#X obj 406 266 min~;
#X obj 204 279 osc~;
#X obj 199 223 mtof;
#X msg 170 173 48;
#X msg 222 175 57;
#X obj 442 196 pink~;
#X obj 543 451 *~;
#X obj 563 391 lop~ 40;
#X obj 582 362 min~;
#X obj 476 334 osc~;
#X obj 518 239 mtof;
#X msg 526 160 48;
#X msg 571 153 57;
#X obj 643 326 pink~;
#X obj 369 392 min~;
#X obj 555 325 phasor~ 0.2;
#X obj 362 507 delwrite~ tbt 200;
#X obj 625 516 delread~ tbt 200;
#X obj 622 488 delread~ tbt 120;
#X msg 629 157 52;
#X msg 591 133 62;
#X obj 618 591 *~;
#X obj 651 390 lop~ 40;
#X obj 627 623 *~ 0.8;
#X msg 202 141 69;
#X obj 696 283 / 100;
#X obj 698 221 metro 800;
#X obj 703 181 tgl 15 0 empty empty empty 17 7 0 10 -262144 -1 -1 1
1;
#X obj 803 220 metro 800;
#X obj 808 180 tgl 15 0 empty empty empty 17 7 0 10 -262144 -1 -1 1
1;
#X obj 696 254 random 80;
#X obj 801 253 random 80;
#X obj 801 282 / 300;
#X obj 416 437 vline~;
#X msg 422 409 \$1 300;
#X obj 783 405 metro 800;
#X obj 794 355 tgl 15 0 empty empty empty 17 7 0 10 -262144 -1 -1 1
1;
#X obj 781 438 random 80;
#X obj 801 469 * 10;
#X obj 286 174 phasor~;
#X obj 458 279 phasor~;
#X obj 401 333 *~;
#X obj 160 551 delread~ ddd 600;
#X obj 156 520 delwrite~ ddd 600;
#X obj 189 638 *~;
#X obj 539 51 random 4;
#X obj 529 74 select 0 1 2 3;
#X obj 723 82 metro 3000;
#X obj 722 52 tgl 15 0 empty empty empty 17 7 0 10 -262144 -1 -1 1
1;
#X obj 727 125 random 6000;
#X obj 400 473 vcf~ 10;
#X obj 683 141 delay;
#X obj 215 64 select 0 1 2;
#X msg 283 132 53;
#X obj 225 41 random 4;
#X obj 587 681 vd~ ddd;
#X obj 710 636 vline~;
#X obj 770 554 * 20;
#X obj 555 720 *~ 0.8;
#X obj 348 132 osc~;
#X obj 338 109 mtof;
#X msg 330 80 24;
#X obj 878 123 pink~;
#X obj 874 155 lop~ 50;
#X obj 816 122 pink~;
#X obj 815 149 lop~ 150;
#X obj 358 533 delread~ ddd;
#X obj 348 561 bp~ 50 2;
#X obj 484 440 vline~;
#X msg 490 412 \$1 300;
#X obj 468 476 vcf~ 10;
#X obj 693 333 * 100;
#X obj 463 381 *~;
#X obj 780 21 tgl 15 0 empty empty empty 17 7 0 10 -262144 -1 -1 1
1;
#X msg 933 548 open record.wav \, start;
#X obj 908 717 writesf~;
#X msg 960 589 stop;
#X obj 1019 401 hsl 128 20 0 1 0 0 empty empty empty -2 -8 0 10 -262144
-1 -1 0 1;
#X obj 472 753 *~;
#X connect 1 0 81 0;
#X connect 1 0 84 0;
#X connect 2 0 81 0;
#X connect 2 0 84 0;
#X connect 3 0 1 0;
#X connect 4 0 3 1;
#X connect 5 0 6 0;
#X connect 5 0 20 0;
#X connect 6 0 4 0;
#X connect 7 0 3 0;
#X connect 7 0 20 0;
#X connect 7 0 78 0;
#X connect 8 0 7 0;
#X connect 8 0 45 0;
#X connect 9 0 8 0;
#X connect 10 0 8 0;
#X connect 11 0 6 1;
#X connect 12 0 2 0;
#X connect 13 0 12 1;
#X connect 14 0 13 0;
#X connect 15 0 12 0;
#X connect 15 0 20 1;
#X connect 15 0 78 1;
#X connect 16 0 15 0;
#X connect 16 0 46 0;
#X connect 17 0 16 0;
#X connect 18 0 16 0;
#X connect 19 0 14 1;
#X connect 20 0 56 0;
#X connect 21 0 14 0;
#X connect 21 0 20 1;
#X connect 21 0 28 0;
#X connect 23 0 2 0;
#X connect 23 0 27 0;
#X connect 24 0 1 0;
#X connect 25 0 16 0;
#X connect 26 0 16 0;
#X connect 27 0 29 0;
#X connect 28 0 27 1;
#X connect 29 0 22 0;
#X connect 30 0 8 0;
#X connect 31 0 21 0;
#X connect 32 0 36 0;
#X connect 33 0 32 0;
#X connect 34 0 37 0;
#X connect 35 0 34 0;
#X connect 36 0 31 0;
#X connect 36 0 77 0;
#X connect 37 0 38 0;
#X connect 38 0 5 0;
#X connect 39 0 56 1;
#X connect 40 0 39 0;
#X connect 41 0 43 0;
#X connect 42 0 41 0;
#X connect 43 0 44 0;
#X connect 43 0 63 0;
#X connect 44 0 40 0;
#X connect 45 0 47 0;
#X connect 46 0 47 1;
#X connect 47 0 49 0;
#X connect 47 0 56 0;
#X connect 48 0 50 0;
#X connect 50 0 1 0;
#X connect 50 0 2 0;
#X connect 51 0 52 0;
#X connect 52 0 17 0;
#X connect 52 1 18 0;
#X connect 52 2 26 0;
#X connect 52 3 25 0;
#X connect 53 0 51 0;
#X connect 53 0 55 0;
#X connect 53 0 57 0;
#X connect 54 0 53 0;
#X connect 55 0 53 1;
#X connect 55 0 57 1;
#X connect 56 0 22 0;
#X connect 56 0 50 1;
#X connect 57 0 60 0;
#X connect 58 0 9 0;
#X connect 58 1 30 0;
#X connect 58 2 10 0;
#X connect 58 3 59 0;
#X connect 59 0 8 0;
#X connect 60 0 58 0;
#X connect 61 0 2 0;
#X connect 61 0 64 0;
#X connect 62 0 61 0;
#X connect 63 0 62 0;
#X connect 64 0 22 0;
#X connect 64 0 49 0;
#X connect 65 0 49 0;
#X connect 65 0 22 0;
#X connect 66 0 65 0;
#X connect 67 0 66 0;
#X connect 68 0 69 0;
#X connect 69 0 56 0;
#X connect 70 0 71 0;
#X connect 71 0 64 0;
#X connect 72 0 73 0;
#X connect 73 0 1 0;
#X connect 73 0 2 0;
#X connect 74 0 76 1;
#X connect 75 0 74 0;
#X connect 76 0 2 0;
#X connect 76 0 49 0;
#X connect 77 0 75 0;
#X connect 78 0 76 0;
#X connect 79 0 54 0;
#X connect 79 0 33 0;
#X connect 79 0 35 0;
#X connect 79 0 42 0;
#X connect 79 0 80 0;
#X connect 80 0 81 0;
#X connect 82 0 81 0;
#X connect 83 0 84 1;
#X connect 84 0 0 0;
#X connect 84 0 0 1;
